<svg width="80" height="80" viewBox="0 0 80 80" fill="none" xmlns="http://www.w3.org/2000/svg">
<path d="M73.1072 26.59C76.22 34.2658 76.571 42.7843 74.1004 50.6901C71.6298 58.596 66.4909 65.3988 59.5614 69.9364C52.632 74.474 44.342 76.4649 36.1077 75.5689C27.8734 74.6729 20.2056 70.9456 14.4143 65.0238C8.62297 59.102 5.06743 51.3531 4.35506 43.1009C3.64269 34.8486 5.81769 26.6051 10.5085 19.7784C15.1993 12.9518 22.1149 7.96561 30.0739 5.67173C38.0328 3.37784 46.5413 3.91857 54.1459 7.20152" stroke="white" stroke-linecap="round" stroke-linejoin="round"/>
<path d="M55.4514 31.9869C57.3757 35.6879 57.9118 39.9554 56.9627 44.0174C56.0135 48.0794 53.6418 51.6674 50.2766 54.1324C46.9114 56.5973 42.7751 57.7764 38.616 57.4562C34.4569 57.136 30.5498 55.3376 27.6016 52.3866C24.6534 49.4356 22.8589 45.5267 22.5427 41.3674C22.2265 37.208 23.4095 33.0728 25.8777 29.71C28.346 26.3472 31.9363 23.9789 35.9992 23.0337C40.0621 22.0884 44.3291 22.6286 48.0282 24.5566" stroke="white" stroke-linecap="round" stroke-linejoin="round"/>
<path d="M45.0965 40.0533C45.0965 41.0719 44.7945 42.0676 44.2286 42.9145C43.6627 43.7614 42.8584 44.4215 41.9173 44.8113C40.9763 45.2011 39.9408 45.3031 38.9418 45.1044C37.9428 44.9056 37.0252 44.4152 36.3049 43.6949C35.5847 42.9747 35.0942 42.057 34.8955 41.058C34.6968 40.059 34.7987 39.0235 35.1885 38.0825C35.5783 37.1415 36.2384 36.3371 37.0853 35.7713C37.9322 35.2054 38.9279 34.9033 39.9465 34.9033" stroke="white" stroke-linecap="round" stroke-linejoin="round"/>
<path d="M39.9467 40.0533L65.6235 14.3765" stroke="white" stroke-linecap="round" stroke-linejoin="round"/>
<path d="M54.5087 25.3655V15.2821L65.6235 4.16663V14.3765" stroke="white" stroke-linecap="round" stroke-linejoin="round"/>
<path d="M54.6345 25.4913H64.7179L75.8334 14.3765H65.6235" stroke="white" stroke-linecap="round" stroke-linejoin="round"/>
</svg>
