<svg width="80" height="80" viewBox="0 0 80 80" fill="none" xmlns="http://www.w3.org/2000/svg">
<path d="M23.5237 72.8415L28.651 59.8683" stroke="white" stroke-linecap="round" stroke-linejoin="round"/>
<path d="M53.51 57.6935L60.8122 69.5791" stroke="white" stroke-linecap="round" stroke-linejoin="round"/>
<path d="M25.5434 60.1402L56.6166 57.4215C61.0111 57.0372 65.5076 51.6784 65.1231 47.2839L63.4919 28.6397C63.1076 24.2452 57.7488 19.7485 53.3543 20.133L22.2811 22.8517C17.8868 23.2362 13.3901 28.5948 13.7746 32.9893L15.4058 51.6333C15.7903 56.0282 21.1489 60.5247 25.5434 60.1402Z" stroke="white" stroke-linecap="round" stroke-linejoin="round"/>
<path d="M32.7741 21.9334L27.6675 13.6259" stroke="white" stroke-linecap="round" stroke-linejoin="round"/>
<path d="M38.8477 21.4023L41.1957 13.47" stroke="white" stroke-linecap="round" stroke-linejoin="round"/>
<path d="M26.0498 14.08C27.7725 14.08 29.169 12.6835 29.169 10.9608C29.169 9.23817 27.7725 7.84167 26.0498 7.84167C24.3272 7.84167 22.9307 9.23817 22.9307 10.9608C22.9307 12.6835 24.3272 14.08 26.0498 14.08Z" stroke="white" stroke-linecap="round" stroke-linejoin="round"/>
<path d="M41.53 13.4924C42.9943 13.4924 44.1813 12.3053 44.1813 10.841C44.1813 9.37674 42.9943 8.1897 41.53 8.1897C40.0657 8.1897 38.8787 9.37674 38.8787 10.841C38.8787 12.3053 40.0657 13.4924 41.53 13.4924Z" stroke="white" stroke-linecap="round" stroke-linejoin="round"/>
</svg>
