<svg width="80" height="80" viewBox="0 0 80 80" fill="none" xmlns="http://www.w3.org/2000/svg">
<path d="M9.6652 31.3334L9.48987 44.4319" stroke="white" stroke-linecap="round" stroke-linejoin="round"/>
<path d="M49.65 40L49.6515 63.6363M49.65 40C49.847 27.453 72.453 27.6106 72.5 40V63.6363M49.65 40C49.6788 38.4226 49.2953 36.8653 48.5351 35.4829C47.7748 34.1006 46.6657 32.9416 45.3182 32.1211M27.197 39.0151C27.0803 47.1106 27.197 55.4818 27.197 63.6363M47.6818 28.9696L43.7425 25.2273L54.5758 16.3636C37.8639 17.2565 21.6582 22.4098 7.5 31.3333H21.6818V38.0303C31.2742 40.2166 40.3742 39.5333 47.6818 28.9696Z" stroke="white" stroke-linecap="round" stroke-linejoin="round"/>
</svg>
