<svg width="80" height="80" viewBox="0 0 80 80" fill="none" xmlns="http://www.w3.org/2000/svg">
<path d="M47.4666 41.6667H64.7C65.203 41.6895 65.6803 41.8951 66.0425 42.2449C66.4046 42.5948 66.6265 43.0648 66.6666 43.5667V51.2334C66.6317 51.7302 66.4186 52.1976 66.0664 52.5498C65.7142 52.902 65.2468 53.1151 64.75 53.15H11.0833C10.575 53.15 10.0874 52.9481 9.728 52.5887C9.36856 52.2292 9.16663 51.7417 9.16663 51.2334V43.5667C9.20538 43.0729 9.42021 42.6094 9.772 42.2606C10.1238 41.9119 10.5891 41.7011 11.0833 41.6667H24.4166M62.7833 10.15L70.8333 18.3334L35.9833 53.15L18.3333 35.5167L26.3666 27.4834L35.95 37.05L62.7833 10.15ZM11.0833 58.3334H64.7C65.2122 58.3536 65.6983 58.5651 66.0624 58.926C66.4264 59.287 66.642 59.7713 66.6666 60.2834V67.9334C66.6352 68.4314 66.4231 68.9008 66.0703 69.2537C65.7174 69.6065 65.248 69.8186 64.75 69.85H11.0833C10.575 69.85 10.0874 69.6481 9.728 69.2887C9.36856 68.9292 9.16663 68.4417 9.16663 67.9334V60.2834C9.1902 59.7794 9.39875 59.3019 9.75238 58.9422C10.106 58.5824 10.5799 58.3656 11.0833 58.3334Z" stroke="white" stroke-linecap="round" stroke-linejoin="round"/>
</svg>
