<svg width="180" height="60" viewBox="0 0 180 60" fill="none" xmlns="http://www.w3.org/2000/svg">
<path d="M170.274 59.7842H9.72649C4.36334 59.7842 0 55.4639 0 50.1533V9.8589C0 4.54835 4.36334 0.228027 9.72649 0.228027H170.274C175.637 0.228027 180 4.54835 180 9.8589V50.1531C180 55.4637 175.637 59.7842 170.274 59.7842ZM9.72649 1.10248C4.85031 1.10248 0.883187 5.03061 0.883187 9.8589V50.1531C0.883187 54.9814 4.85031 58.9096 9.72649 58.9096H170.274C175.15 58.9096 179.117 54.9814 179.117 50.1531V9.8589C179.117 5.03061 175.15 1.10248 170.274 1.10248H9.72649Z" fill="white"/>
<path d="M27.4103 22.4522C27.2251 22.5293 27.0178 22.5316 26.8326 22.4543C25.697 21.98 21.3268 20.4102 17.6307 22.5782C13.5159 24.9917 9.17337 38.8338 20.8175 46.4689C21.6612 47.0221 22.7359 47.0757 23.6438 46.6358C25.3535 45.8077 28.6524 44.8462 32.7133 46.8141C33.5281 47.209 34.4815 47.2066 35.2862 46.7919C37.0966 45.8585 40.0491 43.6445 41.2131 38.8222C41.2131 38.8222 32.349 32.3494 40.4711 24.4748C40.4711 24.4748 36.9172 18.4971 27.4103 22.4522Z" fill="white"/>
<path d="M35.0332 13.0663C35.0386 12.9769 34.9628 12.9011 34.8734 12.9065C33.1781 13.0072 31.3714 13.8094 29.9186 15.2622C28.4658 16.715 27.6636 18.5219 27.5628 20.2172C27.5574 20.3066 27.6332 20.3824 27.7226 20.377C29.4179 20.2763 31.2247 19.4741 32.6776 18.0213C34.1302 16.5685 34.9324 14.7616 35.0332 13.0663Z" fill="white"/>
<path d="M67.5668 42.4194C67.6782 42.7674 67.7479 43.043 67.7758 43.246C67.8037 43.4489 67.7664 43.6012 67.6644 43.7029C67.5621 43.8043 67.381 43.867 67.121 43.8914C66.8609 43.9154 66.5033 43.9277 66.0483 43.9277C65.5746 43.9277 65.2054 43.9205 64.9408 43.906C64.6761 43.8916 64.474 43.8625 64.3348 43.819C64.1955 43.7754 64.0979 43.7153 64.0423 43.6378C63.9865 43.5605 63.94 43.459 63.903 43.3333L62.691 39.5632H55.92L54.7776 43.2318C54.7404 43.3673 54.6915 43.4809 54.6312 43.5726C54.5707 43.6645 54.4733 43.7371 54.3387 43.7901C54.2041 43.8432 54.0135 43.8793 53.7673 43.8988C53.5212 43.9181 53.1984 43.9278 52.7991 43.9278C52.3718 43.9278 52.0374 43.9134 51.796 43.8843C51.5543 43.8553 51.3871 43.7854 51.2944 43.6741C51.2015 43.563 51.169 43.4059 51.1969 43.2028C51.2248 42.9998 51.2944 42.7293 51.4058 42.3908L56.9647 25.7442C57.0205 25.58 57.0853 25.4469 57.1598 25.3455C57.2339 25.244 57.3525 25.1668 57.515 25.1134C57.6773 25.0605 57.9027 25.0264 58.1907 25.0119C58.4784 24.9975 58.8594 24.9902 59.333 24.9902C59.8809 24.9902 60.3173 24.9975 60.6426 25.0119C60.9676 25.0264 61.2208 25.0605 61.402 25.1134C61.5831 25.1667 61.713 25.2465 61.7922 25.3527C61.871 25.4592 61.9385 25.6042 61.9941 25.7877L67.5668 42.4194ZM59.2911 28.6584H59.2772L56.7276 36.6337H61.8407L59.2911 28.6584Z" fill="white"/>
<path d="M82.3904 36.6911C82.3904 37.8416 82.272 38.8784 82.0352 39.8016C81.7983 40.7249 81.4522 41.5103 80.9973 42.1579C80.5421 42.8057 79.9755 43.3034 79.2976 43.6514C78.6196 43.9994 77.844 44.1735 76.971 44.1735C76.6089 44.1735 76.2767 44.1372 75.9749 44.0648C75.6729 43.9923 75.3804 43.8811 75.0973 43.7312C74.8138 43.5815 74.533 43.3955 74.2544 43.173C73.9758 42.9507 73.6878 42.6897 73.3907 42.39V48.4802C73.3907 48.5768 73.3628 48.6637 73.307 48.7413C73.2512 48.8184 73.156 48.8838 73.0214 48.9371C72.8866 48.9902 72.708 49.0313 72.485 49.0603C72.262 49.0893 71.9786 49.1038 71.6351 49.1038C71.2913 49.1038 71.0082 49.0893 70.7852 49.0603C70.5622 49.0313 70.3832 48.99 70.2488 48.9371C70.114 48.8838 70.0189 48.8186 69.9632 48.7413C69.9074 48.6637 69.8796 48.5768 69.8796 48.4802V30.4125C69.8796 30.3159 69.9027 30.2314 69.9494 30.1588C69.9957 30.0862 70.0769 30.026 70.1932 29.9776C70.3093 29.9294 70.4624 29.8931 70.6529 29.8689C70.8431 29.8449 71.0824 29.8326 71.3704 29.8326C71.649 29.8326 71.8836 29.8449 72.074 29.8689C72.2644 29.8931 72.4175 29.9294 72.5337 29.9776C72.6498 30.026 72.731 30.0863 72.7776 30.1588C72.8239 30.2314 72.8473 30.316 72.8473 30.4125V31.9351C73.2096 31.5486 73.5648 31.2078 73.9131 30.9127C74.2615 30.618 74.6167 30.3715 74.9788 30.1732C75.3411 29.9751 75.7148 29.8277 76.1004 29.7309C76.4857 29.6345 76.8967 29.5859 77.3335 29.5859C78.2435 29.5859 79.0192 29.7721 79.6601 30.1443C80.301 30.5165 80.8234 31.0265 81.2275 31.6741C81.6314 32.3219 81.9263 33.0758 82.1122 33.9362C82.2974 34.7967 82.3904 35.7148 82.3904 36.6911ZM78.7402 36.9522C78.7402 36.4012 78.7006 35.8719 78.6218 35.3645C78.5428 34.857 78.408 34.4052 78.2178 34.0086C78.0273 33.6124 77.7766 33.2958 77.4654 33.0589C77.154 32.8221 76.7664 32.7036 76.3021 32.7036C76.0698 32.7036 75.8398 32.7399 75.6125 32.8124C75.3848 32.8849 75.1527 33.0034 74.9158 33.1676C74.6789 33.3321 74.4352 33.5447 74.1843 33.8056C73.9335 34.0666 73.6688 34.3907 73.3902 34.7772V39.0404C73.8824 39.6881 74.3515 40.1884 74.7973 40.5411C75.2431 40.8941 75.7074 41.0704 76.1905 41.0704C76.6455 41.0704 77.0334 40.9496 77.3538 40.7079C77.6742 40.4665 77.9365 40.1496 78.1409 39.7582C78.345 39.3667 78.4963 38.9244 78.5937 38.4314C78.6915 37.9382 78.7402 37.4452 78.7402 36.9522Z" fill="white"/>
<path d="M97.7017 36.6911C97.7017 37.8416 97.5833 38.8784 97.3465 39.8016C97.1096 40.7249 96.7634 41.5103 96.3086 42.1579C95.8534 42.8057 95.2867 43.3034 94.6089 43.6514C93.9309 43.9994 93.1551 44.1735 92.2823 44.1735C91.9202 44.1735 91.588 44.1372 91.2862 44.0648C90.9842 43.9923 90.6917 43.8811 90.4086 43.7312C90.1251 43.5815 89.8443 43.3955 89.5657 43.173C89.2871 42.9507 88.9991 42.6897 88.702 42.39V48.4802C88.702 48.5768 88.6741 48.6637 88.6183 48.7413C88.5625 48.8184 88.4673 48.8838 88.3327 48.9371C88.1979 48.9902 88.0191 49.0313 87.7963 49.0603C87.5733 49.0893 87.2898 49.1038 86.9464 49.1038C86.6026 49.1038 86.3194 49.0893 86.0965 49.0603C85.8736 49.0313 85.6945 48.99 85.5601 48.9371C85.4253 48.8838 85.3302 48.8186 85.2744 48.7413C85.2186 48.6637 85.1909 48.5768 85.1909 48.4802V30.4125C85.1909 30.3159 85.2139 30.2314 85.2606 30.1588C85.307 30.0862 85.3882 30.026 85.5045 29.9776C85.6206 29.9294 85.7737 29.8931 85.9642 29.8689C86.1544 29.8449 86.3937 29.8326 86.6816 29.8326C86.9602 29.8326 87.1947 29.8449 87.3851 29.8689C87.5755 29.8931 87.7286 29.9294 87.8449 29.9776C87.961 30.026 88.0421 30.0863 88.0887 30.1588C88.135 30.2314 88.1584 30.316 88.1584 30.4125V31.9351C88.5207 31.5486 88.8759 31.2078 89.2242 30.9127C89.5726 30.618 89.9278 30.3715 90.2901 30.1732C90.6524 29.9751 91.0261 29.8277 91.4117 29.7309C91.797 29.6345 92.208 29.5859 92.6447 29.5859C93.5548 29.5859 94.3305 29.7721 94.9713 30.1443C95.6122 30.5165 96.1346 31.0265 96.5388 31.6741C96.9429 32.3219 97.2376 33.0758 97.4235 33.9362C97.6088 34.7967 97.7017 35.7148 97.7017 36.6911ZM94.0517 36.9522C94.0517 36.4012 94.012 35.8719 93.9332 35.3645C93.8542 34.857 93.7195 34.4052 93.5293 34.0086C93.3387 33.6124 93.088 33.2958 92.777 33.0589C92.4656 32.8221 92.078 32.7036 91.6137 32.7036C91.3815 32.7036 91.1514 32.7399 90.9241 32.8124C90.6962 32.8849 90.4643 33.0034 90.2274 33.1676C89.9905 33.3321 89.7468 33.5447 89.496 33.8056C89.2451 34.0666 88.9804 34.3907 88.7018 34.7772V39.0404C89.194 39.6881 89.6631 40.1884 90.1089 40.5411C90.5547 40.8941 91.019 41.0704 91.5021 41.0704C91.9572 41.0704 92.345 40.9496 92.6654 40.7079C92.9859 40.4665 93.2482 40.1496 93.4525 39.7582C93.6566 39.3667 93.8079 38.9244 93.9053 38.4314C94.0028 37.9382 94.0517 37.4452 94.0517 36.9522Z" fill="white"/>
<path d="M117.848 38.214C117.848 39.2 117.671 40.0652 117.318 40.8096C116.965 41.5541 116.487 42.175 115.883 42.6729C115.279 43.171 114.573 43.5455 113.765 43.7967C112.957 44.0479 112.094 44.1738 111.174 44.1738C110.551 44.1738 109.973 44.1205 109.439 44.0143C108.905 43.9078 108.434 43.7801 108.025 43.63C107.616 43.4803 107.275 43.3232 107.001 43.1587C106.727 42.9945 106.53 42.8495 106.409 42.7237C106.288 42.5981 106.202 42.4168 106.151 42.1799C106.1 41.9431 106.075 41.6024 106.075 41.1576C106.075 40.858 106.084 40.6066 106.103 40.4036C106.121 40.2006 106.151 40.0363 106.193 39.9106C106.235 39.7851 106.291 39.6955 106.36 39.6424C106.43 39.5893 106.511 39.5626 106.604 39.5626C106.734 39.5626 106.918 39.6424 107.154 39.8019C107.391 39.9613 107.695 40.1379 108.067 40.331C108.438 40.5246 108.882 40.7009 109.397 40.8603C109.913 41.02 110.51 41.0996 111.188 41.0996C111.633 41.0996 112.033 41.0442 112.386 40.9329C112.739 40.8218 113.038 40.6647 113.284 40.4616C113.53 40.2586 113.719 40.0074 113.849 39.7076C113.979 39.408 114.044 39.0746 114.044 38.7071C114.044 38.2818 113.932 37.9169 113.709 37.6122C113.486 37.3077 113.196 37.0372 112.839 36.8003C112.481 36.5635 112.075 36.3412 111.619 36.1334C111.164 35.9255 110.695 35.7055 110.212 35.4735C109.729 35.2414 109.26 34.9781 108.805 34.6832C108.35 34.3885 107.944 34.0358 107.586 33.6248C107.228 33.2139 106.938 32.7281 106.715 32.1674C106.492 31.6069 106.381 30.9349 106.381 30.1518C106.381 29.2529 106.541 28.4626 106.862 27.7811C107.182 27.0995 107.614 26.5341 108.157 26.0844C108.701 25.6349 109.342 25.2992 110.08 25.0767C110.818 24.8544 111.601 24.7432 112.428 24.7432C112.855 24.7432 113.282 24.7771 113.71 24.8447C114.137 24.9124 114.536 25.0041 114.908 25.1202C115.279 25.2363 115.609 25.3667 115.897 25.5118C116.185 25.6568 116.375 25.7777 116.468 25.8744C116.561 25.9712 116.623 26.0535 116.656 26.1209C116.688 26.1886 116.716 26.2782 116.74 26.3891C116.763 26.5003 116.779 26.6406 116.788 26.8096C116.798 26.9789 116.802 27.1892 116.802 27.4404C116.802 27.7209 116.795 27.9577 116.781 28.1509C116.768 28.3445 116.744 28.5039 116.712 28.6295C116.679 28.7551 116.633 28.8469 116.572 28.9049C116.512 28.963 116.431 28.9919 116.329 28.9919C116.226 28.9919 116.064 28.9244 115.841 28.7889C115.618 28.6537 115.344 28.5061 115.019 28.3467C114.694 28.1872 114.318 28.042 113.89 27.9116C113.463 27.7811 112.994 27.7159 112.483 27.7159C112.084 27.7159 111.736 27.7666 111.438 27.8681C111.141 27.9696 110.893 28.1099 110.693 28.2887C110.493 28.4676 110.345 28.6827 110.247 28.9339C110.15 29.1855 110.101 29.4511 110.101 29.7314C110.101 30.1471 110.21 30.5072 110.428 30.8117C110.646 31.1162 110.939 31.3871 111.306 31.6238C111.673 31.8608 112.088 32.0831 112.553 32.2908C113.017 32.4988 113.491 32.7186 113.974 32.9506C114.457 33.1827 114.931 33.4462 115.395 33.7409C115.859 34.036 116.273 34.3887 116.635 34.7995C116.997 35.2105 117.29 35.6938 117.513 36.2495C117.736 36.805 117.848 37.4598 117.848 38.214Z" fill="white"/>
<path d="M127.795 42.0706C127.795 42.4961 127.769 42.8224 127.718 43.0494C127.667 43.2768 127.6 43.4363 127.516 43.528C127.433 43.6199 127.31 43.7021 127.147 43.7745C126.985 43.8471 126.794 43.9098 126.576 43.963C126.358 44.0161 126.121 44.0573 125.865 44.0862C125.61 44.1153 125.352 44.1297 125.092 44.1297C124.396 44.1297 123.792 44.0378 123.281 43.8542C122.77 43.6707 122.347 43.3879 122.013 43.0059C121.679 42.6242 121.433 42.1431 121.275 41.563C121.117 40.983 121.038 40.2967 121.038 39.5039V32.8772H119.547C119.371 32.8772 119.236 32.7636 119.143 32.5364C119.05 32.3094 119.004 31.93 119.004 31.3981C119.004 31.1178 119.016 30.8811 119.039 30.6877C119.062 30.4944 119.096 30.3422 119.143 30.231C119.19 30.1199 119.248 30.0401 119.317 29.9917C119.387 29.9435 119.468 29.9191 119.561 29.9191H121.038V27.0334C121.038 26.937 121.064 26.85 121.115 26.7725C121.166 26.6952 121.259 26.63 121.393 26.5767C121.528 26.5236 121.709 26.485 121.937 26.4606C122.164 26.4366 122.445 26.4243 122.779 26.4243C123.123 26.4243 123.409 26.4366 123.636 26.4606C123.864 26.4848 124.042 26.5236 124.173 26.5767C124.303 26.63 124.396 26.6952 124.451 26.7725C124.507 26.85 124.535 26.937 124.535 27.0334V29.9191H127.238C127.33 29.9191 127.412 29.9433 127.481 29.9917C127.551 30.0401 127.609 30.1199 127.656 30.231C127.702 30.3422 127.737 30.4944 127.76 30.6877C127.783 30.8811 127.795 31.1178 127.795 31.3981C127.795 31.93 127.748 32.3094 127.656 32.5364C127.563 32.7636 127.428 32.8772 127.252 32.8772H124.535V38.9529C124.535 39.6587 124.641 40.188 124.855 40.5407C125.069 40.8937 125.45 41.07 125.997 41.07C126.183 41.07 126.35 41.0532 126.499 41.0193C126.647 40.9855 126.78 40.9467 126.896 40.9031C127.012 40.8596 127.11 40.8211 127.189 40.7872C127.267 40.7534 127.34 40.7365 127.405 40.7365C127.46 40.7365 127.514 40.7534 127.565 40.7872C127.616 40.8211 127.655 40.8887 127.683 40.9902C127.711 41.0917 127.737 41.2295 127.76 41.4036C127.783 41.5776 127.795 41.8001 127.795 42.0706Z" fill="white"/>
<path d="M142.619 36.7492C142.619 37.8514 142.479 38.8569 142.201 39.7653C141.922 40.674 141.499 41.457 140.933 42.1144C140.366 42.7719 139.656 43.2794 138.801 43.637C137.947 43.9945 136.948 44.1735 135.806 44.1735C134.7 44.1735 133.739 44.014 132.922 43.6949C132.104 43.376 131.426 42.9119 130.888 42.3029C130.349 41.694 129.95 40.9449 129.69 40.0555C129.429 39.1662 129.3 38.1511 129.3 37.0104C129.3 35.9082 129.441 34.9005 129.725 33.9869C130.008 33.0735 130.433 32.2904 130.999 31.6378C131.566 30.9853 132.274 30.4802 133.124 30.1225C133.974 29.7649 134.97 29.5859 136.112 29.5859C137.227 29.5859 138.193 29.7432 139.01 30.0573C139.827 30.3715 140.503 30.8331 141.037 31.442C141.571 32.051 141.968 32.8004 142.228 33.6897C142.488 34.5791 142.619 35.5989 142.619 36.7492ZM139.01 36.8942C139.01 36.2562 138.962 35.6689 138.864 35.1324C138.766 34.5959 138.601 34.1296 138.369 33.733C138.137 33.3368 137.828 33.0276 137.443 32.805C137.057 32.5828 136.572 32.4714 135.987 32.4714C135.467 32.4714 135.012 32.5707 134.622 32.7687C134.232 32.9669 133.911 33.257 133.66 33.6388C133.41 34.0207 133.221 34.4798 133.096 35.0163C132.971 35.5528 132.908 36.1643 132.908 36.8506C132.908 37.4886 132.959 38.0757 133.061 38.6124C133.164 39.1489 133.328 39.6154 133.556 40.0118C133.783 40.4083 134.092 40.715 134.482 40.9324C134.872 41.15 135.355 41.2586 135.931 41.2586C136.461 41.2586 136.921 41.1596 137.311 40.9613C137.701 40.7634 138.021 40.4756 138.272 40.0985C138.523 39.7214 138.708 39.2647 138.829 38.7282C138.95 38.192 139.01 37.5807 139.01 36.8942Z" fill="white"/>
<path d="M153.374 31.616C153.374 31.964 153.365 32.2493 153.346 32.4714C153.328 32.6939 153.3 32.868 153.263 32.9935C153.225 33.1192 153.176 33.2062 153.116 33.2545C153.056 33.303 152.979 33.327 152.886 33.327C152.812 33.327 152.728 33.3102 152.635 33.2763C152.542 33.2425 152.438 33.2062 152.322 33.1676C152.206 33.1291 152.078 33.0928 151.939 33.0589C151.799 33.0251 151.646 33.0081 151.479 33.0081C151.284 33.0081 151.089 33.0495 150.894 33.1313C150.699 33.2136 150.497 33.3415 150.288 33.5156C150.079 33.6895 149.86 33.9216 149.633 34.2116C149.405 34.5016 149.161 34.8594 148.902 35.2846V43.3469C148.902 43.4437 148.874 43.5282 148.818 43.6007C148.762 43.6732 148.667 43.7337 148.532 43.782C148.398 43.8304 148.219 43.8665 147.996 43.8907C147.773 43.9147 147.49 43.927 147.146 43.927C146.802 43.927 146.519 43.9147 146.296 43.8907C146.073 43.8663 145.894 43.8304 145.76 43.782C145.625 43.7337 145.53 43.6732 145.474 43.6007C145.418 43.5282 145.391 43.4437 145.391 43.3469V30.4125C145.391 30.3159 145.414 30.2314 145.46 30.1588C145.507 30.0862 145.59 30.026 145.711 29.9776C145.832 29.9294 145.987 29.8931 146.178 29.8689C146.368 29.8449 146.607 29.8326 146.895 29.8326C147.192 29.8326 147.439 29.8449 147.634 29.8689C147.829 29.8931 147.979 29.9294 148.086 29.9776C148.193 30.026 148.27 30.0863 148.316 30.1588C148.363 30.2314 148.386 30.316 148.386 30.4125V32.0221C148.711 31.5388 149.017 31.1399 149.305 30.8257C149.593 30.5116 149.867 30.2628 150.127 30.0789C150.387 29.8955 150.647 29.7672 150.908 29.6947C151.168 29.6221 151.428 29.5859 151.688 29.5859C151.809 29.5859 151.939 29.5932 152.078 29.6076C152.217 29.6221 152.361 29.6464 152.51 29.6802C152.658 29.7141 152.789 29.7526 152.9 29.7961C153.011 29.8397 153.093 29.8857 153.144 29.9339C153.195 29.9823 153.232 30.0354 153.255 30.0934C153.278 30.1514 153.299 30.2312 153.318 30.3327C153.336 30.4342 153.35 30.5864 153.36 30.7894C153.369 30.9924 153.374 31.268 153.374 31.616Z" fill="white"/>
<path d="M166.693 36.503C166.693 36.9478 166.598 37.2765 166.408 37.4891C166.217 37.7018 165.955 37.808 165.62 37.808H158.055C158.055 38.359 158.118 38.8592 158.243 39.3089C158.369 39.7584 158.568 40.1403 158.843 40.4544C159.116 40.7686 159.469 41.0079 159.901 41.1722C160.333 41.3367 160.851 41.4187 161.455 41.4187C162.068 41.4187 162.606 41.373 163.071 41.2809C163.535 41.1892 163.937 41.0877 164.276 40.9765C164.615 40.8654 164.896 40.7639 165.119 40.672C165.342 40.5802 165.523 40.5342 165.662 40.5342C165.746 40.5342 165.816 40.5512 165.871 40.5849C165.927 40.619 165.974 40.6792 166.011 40.7662C166.048 40.8533 166.073 40.9765 166.087 41.1359C166.101 41.2954 166.108 41.4962 166.108 41.7378C166.108 41.9505 166.103 42.1319 166.094 42.2816C166.085 42.4316 166.071 42.5597 166.053 42.6659C166.034 42.7722 166.006 42.8616 165.969 42.9341C165.932 43.0066 165.883 43.0767 165.822 43.1443C165.762 43.212 165.597 43.3037 165.328 43.4198C165.058 43.5358 164.715 43.6495 164.297 43.7606C163.879 43.8717 163.4 43.9683 162.862 44.0506C162.323 44.1326 161.747 44.1738 161.134 44.1738C160.029 44.1738 159.061 44.0288 158.23 43.7388C157.398 43.4487 156.704 43.009 156.147 42.4192C155.589 41.8297 155.173 41.0852 154.9 40.1862C154.626 39.2872 154.489 38.2336 154.489 37.0251C154.489 35.8749 154.633 34.838 154.921 33.9148C155.208 32.9918 155.626 32.2088 156.174 31.5657C156.722 30.923 157.389 30.4325 158.174 30.0939C158.958 29.7556 159.843 29.5864 160.828 29.5864C161.868 29.5864 162.758 29.7459 163.496 30.065C164.234 30.3839 164.84 30.8262 165.314 31.3918C165.788 31.9572 166.136 32.6268 166.359 33.4001C166.582 34.1736 166.693 35.0146 166.693 35.9233L166.693 36.503ZM163.294 35.4591C163.322 34.4345 163.124 33.6297 162.702 33.0447C162.279 32.46 161.626 32.1674 160.744 32.1674C160.298 32.1674 159.91 32.2545 159.581 32.4284C159.251 32.6025 158.977 32.8369 158.759 33.1316C158.541 33.4267 158.373 33.7747 158.257 34.1756C158.141 34.5769 158.074 35.0047 158.055 35.4589H163.294V35.4591Z" fill="white"/>
<path d="M60.3106 15.8618C60.3106 16.6716 60.2047 17.3641 59.9934 17.9394C59.782 18.5148 59.4782 18.9844 59.0824 19.3482C58.6867 19.7122 58.2056 19.9794 57.6394 20.1499C57.0731 20.3205 56.3988 20.4058 55.6164 20.4058H53.5081C53.358 20.4058 53.2318 20.3615 53.1295 20.2727C53.0272 20.184 52.9761 20.0397 52.9761 19.8396V12.1434C52.9761 11.9433 53.0272 11.799 53.1295 11.7102C53.2318 11.6215 53.358 11.5771 53.5081 11.5771H55.7733C56.5602 11.5771 57.2277 11.6692 57.7758 11.8534C58.3239 12.0376 58.7855 12.3106 59.1607 12.6721C59.536 13.0337 59.8213 13.4806 60.0169 14.0128C60.2126 14.5451 60.3106 15.1615 60.3106 15.8618ZM58.4547 15.9234C58.4547 15.5049 58.4058 15.1159 58.308 14.7567C58.2102 14.3974 58.0532 14.0857 57.8371 13.8219C57.621 13.5581 57.3436 13.3524 57.0049 13.2046C56.6659 13.0569 56.2213 12.9828 55.671 12.9828H54.7636V18.9868H55.6984C56.1896 18.9868 56.6034 18.9231 56.94 18.7957C57.2766 18.6685 57.5575 18.4763 57.7827 18.2192C58.0077 17.9623 58.1761 17.6427 58.2875 17.2607C58.399 16.8785 58.4547 16.4328 58.4547 15.9234Z" fill="white"/>
<path d="M67.8359 17.0692C67.8359 17.5877 67.7677 18.0609 67.6312 18.4884C67.4948 18.9159 67.2878 19.2844 67.0103 19.5937C66.7329 19.9031 66.3849 20.1418 65.9665 20.31C65.5479 20.4782 65.0591 20.5626 64.4997 20.5626C63.9583 20.5626 63.4877 20.4875 63.0874 20.3374C62.6872 20.1874 62.3551 19.9689 62.0913 19.6824C61.8275 19.3959 61.6317 19.0434 61.5045 18.6248C61.3772 18.2064 61.3135 17.7289 61.3135 17.192C61.3135 16.6734 61.3829 16.1992 61.5215 15.7694C61.6601 15.3396 61.8683 14.9713 62.1458 14.6641C62.4232 14.3571 62.7702 14.1195 63.1862 13.9511C63.6024 13.7829 64.0902 13.6987 64.6496 13.6987C65.1954 13.6987 65.6684 13.7728 66.0687 13.9204C66.4689 14.0682 66.7998 14.2855 67.0614 14.572C67.323 14.8585 67.5173 15.211 67.6448 15.6296C67.772 16.0482 67.8359 16.5279 67.8359 17.0692ZM66.0687 17.1375C66.0687 16.8373 66.0448 16.5609 65.9971 16.3086C65.9494 16.0562 65.8685 15.8368 65.7548 15.6503C65.641 15.4638 65.4898 15.3182 65.3011 15.2136C65.1122 15.109 64.8746 15.0566 64.5881 15.0566C64.3334 15.0566 64.1106 15.1033 63.9195 15.1964C63.7285 15.2897 63.5717 15.4261 63.4487 15.6057C63.3259 15.7855 63.2338 16.0015 63.1724 16.2539C63.1111 16.5062 63.0804 16.7941 63.0804 17.1169C63.0804 17.4172 63.1054 17.6934 63.1555 17.9458C63.2055 18.1982 63.2862 18.4178 63.3978 18.6041C63.5092 18.7907 63.6604 18.935 63.8515 19.0373C64.0425 19.1397 64.2789 19.1908 64.5611 19.1908C64.8203 19.1908 65.0455 19.1442 65.2366 19.0508C65.4276 18.9577 65.5846 18.8223 65.7074 18.6448C65.8302 18.4675 65.9211 18.2526 65.9803 18.0001C66.0391 17.748 66.0687 17.4605 66.0687 17.1375Z" fill="white"/>
<path d="M78.4795 14.0744C78.4795 14.1245 78.4728 14.1858 78.459 14.2586C78.4454 14.3313 78.4203 14.436 78.3839 14.5724L76.76 20.0782C76.7372 20.1557 76.7076 20.2182 76.6713 20.2659C76.6348 20.3137 76.5792 20.3513 76.5041 20.3785C76.429 20.4059 76.3221 20.4239 76.1835 20.4331C76.0447 20.4422 75.8639 20.4467 75.6411 20.4467C75.4181 20.4467 75.2361 20.441 75.0953 20.4298C74.9541 20.4183 74.8439 20.399 74.7644 20.3716C74.6848 20.3442 74.6268 20.3069 74.5903 20.2591C74.5539 20.2113 74.5267 20.151 74.5085 20.0782L73.485 16.3803L73.4714 16.319L73.4578 16.3803L72.5163 20.0782C72.4982 20.1557 72.4719 20.2182 72.4378 20.2659C72.4037 20.3137 72.3458 20.3513 72.2639 20.3785C72.1821 20.4059 72.0705 20.4239 71.9295 20.4331C71.7885 20.4422 71.6066 20.4467 71.3838 20.4467C71.1562 20.4467 70.9732 20.441 70.8346 20.4298C70.6958 20.4183 70.5866 20.399 70.5071 20.3716C70.4275 20.3442 70.3695 20.3069 70.3332 20.2591C70.2967 20.2113 70.2693 20.151 70.2514 20.0782L68.6413 14.5724C68.6004 14.4405 68.5742 14.337 68.5628 14.2619C68.5514 14.1868 68.5457 14.1245 68.5457 14.0742C68.5457 14.0289 68.5581 13.9889 68.5831 13.9547C68.6082 13.9206 68.6535 13.8934 68.7196 13.8729C68.7854 13.8524 68.8742 13.8378 68.9856 13.8286C69.097 13.8195 69.2368 13.8149 69.4052 13.8149C69.5871 13.8149 69.7348 13.8195 69.8486 13.8286C69.9624 13.8376 70.0509 13.8536 70.1148 13.8763C70.1784 13.8991 70.2228 13.9297 70.2478 13.9684C70.2729 14.007 70.2922 14.0537 70.3058 14.1082L71.5135 18.577L71.5271 18.6589L71.5407 18.577L72.6732 14.1082C72.6869 14.0537 72.7084 14.007 72.7381 13.9684C72.7677 13.9297 72.812 13.899 72.8712 13.8763C72.9302 13.8536 73.0133 13.8376 73.1202 13.8286C73.2271 13.8195 73.3647 13.8149 73.5331 13.8149C73.7013 13.8149 73.8377 13.8208 73.9424 13.8321C74.0469 13.8435 74.1301 13.8595 74.1914 13.8798C74.2528 13.9003 74.296 13.9275 74.3212 13.9616C74.346 13.9957 74.3653 14.0356 74.3791 14.0809L75.5937 18.5841L75.6142 18.6592L75.6278 18.5774L76.7877 14.1085C76.7968 14.0541 76.8151 14.0073 76.8423 13.9687C76.8696 13.93 76.9151 13.8993 76.9788 13.8766C77.0425 13.8539 77.1288 13.838 77.2381 13.8289C77.3471 13.8198 77.4859 13.8153 77.6543 13.8153C77.8225 13.8153 77.9601 13.8198 78.0671 13.8289C78.1738 13.838 78.2582 13.8527 78.3195 13.8732C78.381 13.8937 78.423 13.921 78.4459 13.9551C78.4681 13.989 78.4795 14.0288 78.4795 14.0744Z" fill="white"/>
<path d="M85.3908 20.1736C85.3908 20.2191 85.3772 20.2589 85.35 20.2931C85.3226 20.3272 85.2772 20.3556 85.2136 20.3783C85.1497 20.4011 85.0622 20.4181 84.9509 20.4295C84.8394 20.4408 84.7019 20.4465 84.5381 20.4465C84.3697 20.4465 84.2299 20.4408 84.1185 20.4295C84.0069 20.4181 83.9194 20.4011 83.8558 20.3783C83.792 20.3556 83.7466 20.3272 83.7194 20.2931C83.6922 20.2589 83.6786 20.2193 83.6786 20.1736V16.7008C83.6786 16.4053 83.6569 16.1732 83.6137 16.0048C83.5705 15.8366 83.508 15.6923 83.426 15.5716C83.3442 15.4512 83.2383 15.3579 83.1088 15.2919C82.9792 15.226 82.8278 15.1929 82.6551 15.1929C82.4368 15.1929 82.2162 15.2725 81.9934 15.4317C81.7704 15.5908 81.5385 15.8228 81.2974 16.1275V20.1734C81.2974 20.219 81.2837 20.2588 81.2565 20.2929C81.2291 20.327 81.1824 20.3554 81.1167 20.3781C81.0507 20.4009 80.9631 20.4179 80.8541 20.4293C80.745 20.4406 80.6061 20.4463 80.4379 20.4463C80.2695 20.4463 80.1309 20.4406 80.0216 20.4293C79.9126 20.4179 79.8249 20.4009 79.759 20.3781C79.693 20.3554 79.6464 20.327 79.6192 20.2929C79.592 20.2588 79.5784 20.2191 79.5784 20.1734V14.0876C79.5784 14.0422 79.5898 14.0022 79.6125 13.9683C79.6352 13.9341 79.6762 13.9057 79.7353 13.8829C79.7943 13.8602 79.8706 13.8432 79.9638 13.8318C80.0571 13.8206 80.1742 13.8147 80.3152 13.8147C80.4607 13.8147 80.5812 13.8206 80.6768 13.8318C80.7722 13.8432 80.8462 13.8602 80.8984 13.8829C80.9507 13.9057 80.9882 13.9341 81.011 13.9683C81.0337 14.0024 81.0451 14.0422 81.0451 14.0876V14.7903C81.3817 14.4265 81.724 14.1536 82.072 13.9716C82.4198 13.7896 82.7826 13.6987 83.1602 13.6987C83.574 13.6987 83.9231 13.767 84.2075 13.9034C84.4917 14.0398 84.7216 14.2252 84.8967 14.4594C85.0717 14.6937 85.1979 14.9677 85.2752 15.2816C85.3525 15.5955 85.3912 15.9731 85.3912 16.4142V20.1736H85.3908Z" fill="white"/>
<path d="M88.7954 20.1739C88.7954 20.2195 88.7818 20.2593 88.7546 20.2934C88.7274 20.3275 88.6806 20.3559 88.6148 20.3786C88.5487 20.4014 88.4613 20.4184 88.3521 20.4298C88.2431 20.4411 88.1041 20.4468 87.9359 20.4468C87.7675 20.4468 87.6289 20.4411 87.5197 20.4298C87.4106 20.4184 87.3229 20.4014 87.2571 20.3786C87.1912 20.3559 87.1445 20.3275 87.1172 20.2934C87.09 20.2593 87.0764 20.2196 87.0764 20.1739V11.2021C87.0764 11.1567 87.09 11.1157 87.1172 11.0792C87.1445 11.043 87.1912 11.0122 87.2571 10.9872C87.3229 10.9623 87.4106 10.9428 87.5197 10.9292C87.6289 10.9156 87.7675 10.9087 87.9359 10.9087C88.1041 10.9087 88.2429 10.9156 88.3521 10.9292C88.4613 10.9428 88.5489 10.9623 88.6148 10.9872C88.6806 11.0124 88.7274 11.043 88.7546 11.0792C88.7818 11.1157 88.7954 11.1567 88.7954 11.2021V20.1739Z" fill="white"/>
<path d="M96.6621 17.0692C96.6621 17.5877 96.5938 18.0609 96.4574 18.4884C96.321 18.9159 96.1139 19.2844 95.8365 19.5937C95.5591 19.9031 95.2111 20.1418 94.7927 20.31C94.3741 20.4782 93.8853 20.5626 93.3259 20.5626C92.7847 20.5626 92.3138 20.4875 91.9136 20.3374C91.5133 20.1874 91.1813 19.9689 90.9175 19.6824C90.6537 19.3959 90.4579 19.0434 90.3307 18.6248C90.2033 18.2064 90.1396 17.7289 90.1396 17.192C90.1396 16.6734 90.2091 16.1992 90.3477 15.7694C90.4863 15.3396 90.6945 14.9713 90.9719 14.6641C91.2493 14.3571 91.5963 14.1195 92.0124 13.9511C92.4286 13.7829 92.9164 13.6987 93.4758 13.6987C94.0216 13.6987 94.4946 13.7728 94.8948 13.9204C95.2951 14.0682 95.626 14.2855 95.8876 14.572C96.1492 14.8585 96.3436 15.211 96.471 15.6296C96.5982 16.0482 96.6621 16.5279 96.6621 17.0692ZM94.8948 17.1375C94.8948 16.8373 94.871 16.5609 94.8233 16.3086C94.7755 16.0562 94.6947 15.8368 94.581 15.6503C94.4672 15.4638 94.316 15.3182 94.1273 15.2136C93.9384 15.109 93.7008 15.0566 93.4143 15.0566C93.1596 15.0566 92.9367 15.1033 92.7457 15.1964C92.5546 15.2897 92.3979 15.4261 92.2749 15.6057C92.152 15.7855 92.0599 16.0015 91.9986 16.2539C91.9373 16.5062 91.9065 16.7941 91.9065 17.1169C91.9065 17.4172 91.9316 17.6934 91.9816 17.9458C92.0317 18.1982 92.1124 18.4178 92.2239 18.6041C92.3353 18.7907 92.4866 18.935 92.6776 19.0373C92.8687 19.1397 93.1051 19.1908 93.3872 19.1908C93.6465 19.1908 93.8717 19.1442 94.0627 19.0508C94.2538 18.9577 94.4107 18.8223 94.5336 18.6448C94.6564 18.4675 94.7473 18.2526 94.8065 18.0001C94.8653 17.748 94.8948 17.4605 94.8948 17.1375Z" fill="white"/>
<path d="M103.205 20.1942C103.205 20.2579 103.182 20.308 103.137 20.3443C103.091 20.3808 103.02 20.4068 102.922 20.4228C102.824 20.4386 102.679 20.4466 102.489 20.4466C102.284 20.4466 102.135 20.4386 102.042 20.4228C101.948 20.4068 101.882 20.3808 101.844 20.3443C101.805 20.308 101.786 20.2579 101.786 20.1942V19.7098C101.536 19.9781 101.25 20.1874 100.93 20.3376C100.609 20.4876 100.253 20.5627 99.8618 20.5627C99.5389 20.5627 99.2421 20.5206 98.9714 20.4365C98.7007 20.3525 98.4666 20.2273 98.2687 20.0613C98.0709 19.8953 97.9173 19.6895 97.8081 19.444C97.6989 19.1983 97.6443 18.9118 97.6443 18.5843C97.6443 18.2294 97.7137 17.9214 97.8523 17.6598C97.9911 17.3983 98.198 17.1822 98.4732 17.0117C98.7484 16.8411 99.0907 16.7149 99.5001 16.6331C99.9094 16.5513 100.385 16.5103 100.926 16.5103H101.52V16.1419C101.52 15.9509 101.5 15.7837 101.462 15.6405C101.423 15.4974 101.359 15.3779 101.271 15.2823C101.182 15.1868 101.064 15.1163 100.916 15.0707C100.768 15.0253 100.585 15.0025 100.367 15.0025C100.08 15.0025 99.8242 15.0344 99.599 15.0979C99.3739 15.1618 99.1747 15.2322 99.002 15.3095C98.8291 15.387 98.6848 15.4574 98.5688 15.5209C98.4529 15.5847 98.3584 15.6163 98.2857 15.6163C98.2356 15.6163 98.1912 15.6005 98.1526 15.5686C98.1139 15.5368 98.082 15.4913 98.0572 15.4322C98.0321 15.373 98.0128 15.3002 97.9992 15.2139C97.9856 15.1275 97.9787 15.0319 97.9787 14.9272C97.9787 14.7862 97.9899 14.6747 98.0128 14.593C98.0355 14.5112 98.0787 14.4372 98.1425 14.3712C98.2062 14.3053 98.3176 14.2326 98.4769 14.1529C98.636 14.0734 98.8224 13.9995 99.0363 13.9313C99.25 13.8631 99.4831 13.8073 99.7356 13.7641C99.988 13.7209 100.248 13.6992 100.517 13.6992C100.994 13.6992 101.403 13.7459 101.741 13.839C102.08 13.9323 102.359 14.0756 102.577 14.2689C102.795 14.4623 102.955 14.7113 103.055 15.0159C103.155 15.3206 103.205 15.6824 103.205 16.1008V20.1942ZM101.52 17.5879H100.865C100.587 17.5879 100.35 17.6084 100.155 17.6494C99.9593 17.6902 99.8002 17.7517 99.6775 17.8335C99.5547 17.9154 99.4648 18.0143 99.408 18.1303C99.351 18.2462 99.3226 18.3793 99.3226 18.5294C99.3226 18.7841 99.4033 18.9842 99.5649 19.1297C99.7262 19.2754 99.9504 19.348 100.237 19.348C100.478 19.348 100.7 19.2865 100.902 19.1637C101.104 19.0409 101.31 18.8614 101.519 18.6246V17.5879H101.52Z" fill="white"/>
<path d="M110.69 20.1738C110.69 20.224 110.678 20.2659 110.655 20.3C110.633 20.3341 110.594 20.3625 110.539 20.3853C110.485 20.408 110.411 20.4238 110.318 20.4331C110.225 20.4421 110.11 20.4467 109.973 20.4467C109.828 20.4467 109.709 20.4421 109.619 20.4331C109.527 20.4238 109.453 20.408 109.397 20.3853C109.34 20.3627 109.299 20.3341 109.274 20.3C109.249 20.2659 109.236 20.2239 109.236 20.1738V19.4985C108.923 19.835 108.594 20.0967 108.251 20.283C107.907 20.4694 107.526 20.5628 107.108 20.5628C106.644 20.5628 106.252 20.4729 105.931 20.2933C105.61 20.1136 105.349 19.8715 105.146 19.5667C104.944 19.262 104.797 18.906 104.706 18.499C104.615 18.0918 104.57 17.6632 104.57 17.2129C104.57 16.6718 104.628 16.185 104.744 15.7528C104.86 15.3206 105.029 14.9523 105.252 14.6475C105.475 14.3427 105.752 14.1084 106.084 13.9448C106.416 13.7811 106.798 13.6991 107.23 13.6991C107.572 13.6991 107.881 13.7685 108.158 13.9071C108.436 14.0459 108.711 14.2494 108.984 14.5178V11.2223C108.984 11.1769 108.996 11.1359 109.021 11.0994C109.046 11.0631 109.092 11.0324 109.158 11.0074C109.224 10.9823 109.311 10.963 109.42 10.9492C109.529 10.9356 109.668 10.9287 109.837 10.9287C110.005 10.9287 110.144 10.9356 110.253 10.9492C110.362 10.9628 110.448 10.9823 110.512 11.0074C110.576 11.0324 110.621 11.0631 110.649 11.0994C110.676 11.1359 110.689 11.1769 110.689 11.2223L110.69 20.1738ZM108.984 16.1074C108.738 15.7982 108.503 15.5616 108.278 15.3977C108.053 15.2341 107.817 15.1521 107.572 15.1521C107.349 15.1521 107.156 15.2079 106.995 15.3193C106.833 15.4307 106.704 15.5797 106.606 15.7661C106.508 15.9528 106.435 16.1608 106.388 16.3903C106.34 16.62 106.316 16.8554 106.316 17.0964C106.316 17.3511 106.336 17.5992 106.377 17.8401C106.418 18.0813 106.486 18.2962 106.579 18.4849C106.672 18.6737 106.796 18.825 106.951 18.9386C107.105 19.0523 107.301 19.1093 107.537 19.1093C107.656 19.1093 107.77 19.0921 107.882 19.058C107.993 19.0239 108.107 18.9683 108.223 18.8908C108.339 18.8135 108.459 18.7124 108.581 18.5872C108.704 18.4622 108.838 18.3086 108.984 18.1266V16.1074Z" fill="white"/>
<path d="M121.729 17.0692C121.729 17.5877 121.66 18.0609 121.524 18.4884C121.388 18.9159 121.181 19.2844 120.903 19.5937C120.626 19.9031 120.278 20.1418 119.859 20.31C119.441 20.4782 118.952 20.5626 118.392 20.5626C117.851 20.5626 117.38 20.4875 116.98 20.3374C116.58 20.1874 116.248 19.9689 115.984 19.6824C115.72 19.3959 115.524 19.0434 115.397 18.6248C115.27 18.2064 115.206 17.7289 115.206 17.192C115.206 16.6734 115.275 16.1992 115.414 15.7694C115.553 15.3396 115.761 14.9713 116.038 14.6641C116.316 14.3571 116.663 14.1195 117.079 13.9511C117.495 13.7829 117.983 13.6987 118.542 13.6987C119.088 13.6987 119.561 13.7728 119.961 13.9204C120.362 14.0682 120.692 14.2855 120.954 14.572C121.216 14.8585 121.41 15.211 121.537 15.6296C121.665 16.0482 121.729 16.5279 121.729 17.0692ZM119.962 17.1375C119.962 16.8373 119.938 16.5609 119.89 16.3086C119.842 16.0562 119.761 15.8368 119.648 15.6503C119.534 15.4638 119.383 15.3182 119.194 15.2136C119.005 15.109 118.768 15.0566 118.481 15.0566C118.226 15.0566 118.003 15.1033 117.812 15.1964C117.621 15.2897 117.465 15.4261 117.342 15.6057C117.219 15.7855 117.127 16.0015 117.065 16.2539C117.004 16.5062 116.973 16.7941 116.973 17.1169C116.973 17.4172 116.998 17.6934 117.048 17.9458C117.098 18.1982 117.179 18.4178 117.291 18.6041C117.402 18.7907 117.553 18.935 117.744 19.0373C117.935 19.1397 118.172 19.1908 118.454 19.1908C118.713 19.1908 118.938 19.1442 119.129 19.0508C119.321 18.9577 119.477 18.8223 119.6 18.6448C119.723 18.4675 119.814 18.2526 119.873 18.0001C119.932 17.748 119.962 17.4605 119.962 17.1375Z" fill="white"/>
<path d="M128.899 20.1736C128.899 20.2191 128.886 20.2589 128.859 20.2931C128.831 20.3272 128.786 20.3556 128.722 20.3783C128.658 20.4011 128.571 20.4181 128.46 20.4295C128.348 20.4408 128.211 20.4465 128.047 20.4465C127.878 20.4465 127.739 20.4408 127.627 20.4295C127.516 20.4181 127.428 20.4011 127.364 20.3783C127.301 20.3556 127.255 20.3272 127.228 20.2931C127.201 20.2589 127.187 20.2193 127.187 20.1736V16.7008C127.187 16.4053 127.166 16.1732 127.122 16.0048C127.079 15.8366 127.017 15.6923 126.935 15.5716C126.853 15.4512 126.747 15.3579 126.617 15.2919C126.488 15.226 126.336 15.1929 126.164 15.1929C125.945 15.1929 125.725 15.2725 125.502 15.4317C125.279 15.5908 125.047 15.8228 124.806 16.1275V20.1734C124.806 20.219 124.792 20.2588 124.765 20.2929C124.738 20.327 124.691 20.3554 124.625 20.3781C124.559 20.4009 124.472 20.4179 124.363 20.4293C124.254 20.4406 124.115 20.4463 123.946 20.4463C123.778 20.4463 123.639 20.4406 123.53 20.4293C123.421 20.4179 123.333 20.4009 123.267 20.3781C123.201 20.3554 123.155 20.327 123.128 20.2929C123.1 20.2588 123.087 20.2191 123.087 20.1734V14.0876C123.087 14.0422 123.098 14.0022 123.121 13.9683C123.143 13.9341 123.184 13.9057 123.244 13.8829C123.303 13.8602 123.379 13.8432 123.472 13.8318C123.565 13.8206 123.683 13.8147 123.824 13.8147C123.969 13.8147 124.089 13.8206 124.185 13.8318C124.281 13.8432 124.354 13.8602 124.407 13.8829C124.459 13.9057 124.496 13.9341 124.519 13.9683C124.542 14.0024 124.553 14.0422 124.553 14.0876V14.7903C124.89 14.4265 125.232 14.1536 125.58 13.9716C125.928 13.7896 126.291 13.6987 126.668 13.6987C127.082 13.6987 127.431 13.767 127.716 13.9034C128 14.0398 128.23 14.2252 128.405 14.4594C128.58 14.6937 128.706 14.9677 128.784 15.2816C128.861 15.5955 128.899 15.9731 128.899 16.4142V20.1736Z" fill="white"/>
<path d="M137.346 19.5737C137.346 19.7738 137.333 19.9274 137.309 20.0342C137.284 20.1411 137.251 20.2162 137.21 20.2592C137.169 20.3026 137.108 20.3411 137.029 20.3753C136.949 20.4095 136.856 20.439 136.749 20.4641C136.642 20.4889 136.526 20.5084 136.401 20.522C136.276 20.5357 136.15 20.5425 136.022 20.5425C135.681 20.5425 135.386 20.4994 135.136 20.413C134.885 20.3266 134.678 20.1935 134.515 20.0137C134.351 19.8341 134.23 19.6078 134.153 19.3349C134.076 19.062 134.037 18.7392 134.037 18.3662V15.2481H133.307C133.22 15.2481 133.155 15.1947 133.109 15.0878C133.064 14.9809 133.041 14.8023 133.041 14.5521C133.041 14.4202 133.047 14.3088 133.058 14.2179C133.069 14.127 133.086 14.0554 133.109 14.003C133.132 13.9507 133.16 13.9133 133.195 13.8904C133.229 13.8677 133.269 13.8563 133.314 13.8563H134.037V12.4986C134.037 12.4532 134.05 12.4122 134.075 12.3757C134.1 12.3393 134.145 12.3087 134.211 12.2837C134.277 12.2588 134.366 12.2405 134.477 12.2291C134.589 12.2178 134.726 12.2119 134.89 12.2119C135.058 12.2119 135.198 12.2178 135.31 12.2291C135.421 12.2405 135.509 12.2586 135.572 12.2837C135.636 12.3087 135.682 12.3395 135.709 12.3757C135.736 12.4122 135.75 12.4532 135.75 12.4986V13.8563H137.073C137.119 13.8563 137.159 13.8677 137.193 13.8904C137.227 13.9133 137.255 13.9507 137.278 14.003C137.301 14.0554 137.318 14.127 137.329 14.2179C137.341 14.309 137.346 14.4204 137.346 14.5521C137.346 14.8023 137.324 14.9809 137.278 15.0878C137.233 15.1947 137.167 15.2481 137.08 15.2481H135.75V18.1069C135.75 18.4389 135.802 18.6879 135.907 18.854C136.011 19.0202 136.198 19.103 136.466 19.103C136.557 19.103 136.639 19.0951 136.712 19.0791C136.785 19.0633 136.85 19.045 136.906 19.0247C136.963 19.0042 137.011 18.986 137.05 18.9701C137.088 18.9541 137.124 18.9462 137.156 18.9462C137.183 18.9462 137.209 18.9543 137.234 18.9701C137.259 18.986 137.278 19.0178 137.292 19.0655C137.306 19.1132 137.318 19.1781 137.329 19.2599C137.34 19.3416 137.346 19.4463 137.346 19.5737Z" fill="white"/>
<path d="M144.401 20.1741C144.401 20.2196 144.387 20.2595 144.36 20.2936C144.333 20.3277 144.287 20.3561 144.223 20.3788C144.16 20.4016 144.072 20.4186 143.961 20.43C143.849 20.4413 143.712 20.447 143.548 20.447C143.38 20.447 143.24 20.4413 143.128 20.43C143.017 20.4186 142.929 20.4016 142.866 20.3788C142.802 20.3561 142.757 20.3277 142.729 20.2936C142.702 20.2595 142.688 20.2198 142.688 20.1741V16.7013C142.688 16.4058 142.667 16.1737 142.624 16.0053C142.58 15.8371 142.518 15.6928 142.436 15.5721C142.354 15.4517 142.248 15.3584 142.119 15.2924C141.989 15.2265 141.838 15.1934 141.665 15.1934C141.447 15.1934 141.226 15.273 141.003 15.4322C140.78 15.5913 140.548 15.8234 140.307 16.128V20.1739C140.307 20.2195 140.294 20.2593 140.266 20.2934C140.239 20.3275 140.193 20.3559 140.126 20.3786C140.06 20.4014 139.973 20.4184 139.864 20.4298C139.755 20.4411 139.616 20.4468 139.448 20.4468C139.279 20.4468 139.141 20.4411 139.031 20.4298C138.922 20.4184 138.835 20.4014 138.769 20.3786C138.703 20.3559 138.656 20.3275 138.629 20.2934C138.602 20.2593 138.588 20.2196 138.588 20.1739V11.2021C138.588 11.1567 138.602 11.1157 138.629 11.0792C138.656 11.043 138.703 11.0122 138.769 10.9872C138.835 10.9623 138.922 10.9428 139.031 10.9292C139.141 10.9156 139.279 10.9087 139.448 10.9087C139.616 10.9087 139.755 10.9156 139.864 10.9292C139.973 10.9428 140.061 10.9623 140.126 10.9872C140.192 11.0124 140.239 11.043 140.266 11.0792C140.294 11.1157 140.307 11.1567 140.307 11.2021V14.5658C140.603 14.2748 140.904 14.0575 141.211 13.9141C141.518 13.7708 141.838 13.6992 142.17 13.6992C142.584 13.6992 142.933 13.7675 143.217 13.9039C143.501 14.0403 143.731 14.2269 143.906 14.4633C144.082 14.6999 144.208 14.9761 144.285 15.2922C144.362 15.6084 144.401 15.9916 144.401 16.4419V20.1741H144.401Z" fill="white"/>
<path d="M151.708 16.9531C151.708 17.1624 151.661 17.317 151.568 17.417C151.475 17.5172 151.346 17.5671 151.182 17.5671H147.478C147.478 17.8263 147.509 18.0618 147.57 18.2731C147.631 18.4845 147.729 18.6643 147.863 18.8122C147.997 18.9601 148.17 19.0726 148.382 19.1499C148.593 19.2272 148.847 19.2659 149.143 19.2659C149.443 19.2659 149.706 19.2444 149.934 19.201C150.161 19.1578 150.358 19.1101 150.524 19.0577C150.69 19.0054 150.828 18.9577 150.937 18.9144C151.046 18.8712 151.135 18.8495 151.203 18.8495C151.244 18.8495 151.278 18.8576 151.305 18.8734C151.333 18.8893 151.355 18.9177 151.374 18.9585C151.392 18.9994 151.404 19.0575 151.411 19.1325C151.418 19.2076 151.421 19.302 151.421 19.4156C151.421 19.5158 151.419 19.6009 151.414 19.6715C151.41 19.7421 151.403 19.8024 151.394 19.8523C151.385 19.9026 151.371 19.9444 151.353 19.9785C151.335 20.0126 151.311 20.0457 151.281 20.0775C151.252 20.1094 151.171 20.1526 151.039 20.2072C150.907 20.2618 150.739 20.3153 150.534 20.3675C150.33 20.4198 150.095 20.4653 149.831 20.504C149.568 20.5426 149.286 20.5621 148.985 20.5621C148.444 20.5621 147.97 20.4939 147.563 20.3574C147.156 20.221 146.816 20.0141 146.543 19.7365C146.27 19.4593 146.066 19.1089 145.932 18.6858C145.798 18.2627 145.731 17.767 145.731 17.1984C145.731 16.6572 145.801 16.1693 145.942 15.735C146.083 15.3006 146.288 14.9323 146.556 14.6297C146.825 14.3272 147.151 14.0963 147.535 13.937C147.92 13.7779 148.353 13.6982 148.835 13.6982C149.345 13.6982 149.78 13.7734 150.142 13.9234C150.503 14.0735 150.8 14.2817 151.032 14.5477C151.264 14.8137 151.435 15.1287 151.544 15.4925C151.653 15.8565 151.707 16.2522 151.707 16.6797V16.9531H151.708ZM150.043 16.4619C150.057 15.9798 149.96 15.6011 149.753 15.3258C149.546 15.0507 149.227 14.9131 148.794 14.9131C148.576 14.9131 148.386 14.954 148.225 15.036C148.063 15.1178 147.929 15.2282 147.822 15.3668C147.715 15.5056 147.633 15.6695 147.576 15.858C147.52 16.0467 147.487 16.2482 147.478 16.4617L150.043 16.4619Z" fill="white"/>
</svg>
