<svg width="180" height="53" viewBox="0 0 180 53" fill="none" xmlns="http://www.w3.org/2000/svg">
<path d="M173.314 52.2281H6.68576C2.99918 52.2281 0 49.2647 0 45.6225V6.60553C0 2.96314 2.99918 0 6.68576 0H173.314C177.001 0 180 2.96331 180 6.60553V45.6224C180 49.2647 177.001 52.2281 173.314 52.2281ZM6.68576 0.882553C3.49179 0.882553 0.893258 3.4498 0.893258 6.60553V45.6224C0.893258 48.7781 3.49179 51.3453 6.68576 51.3453H173.314C176.508 51.3453 179.107 48.7781 179.107 45.6224V6.60553C179.107 3.4498 176.508 0.882553 173.314 0.882553H6.68576Z" fill="white"/>
<path d="M12.2034 9.00439C11.9827 9.26005 11.843 9.59322 11.843 9.97602V26.1132V42.2503C11.843 42.6331 11.9827 42.9664 12.2034 43.2221L29.3919 26.1132L12.2034 9.00439Z" fill="#3EC1FA"/>
<path d="M34.8569 20.6738L28.061 16.7501L14.0857 8.68151C13.4204 8.29735 12.6459 8.49199 12.2031 9.00482L29.3916 26.1138L34.8569 20.6738Z" fill="#58C86E"/>
<path d="M41.5931 24.563L34.8569 20.6738L29.3916 26.1138L34.8569 31.5538L41.5931 27.6645C42.7869 26.9754 42.7869 25.2523 41.5931 24.563Z" fill="#FCD53B"/>
<path d="M12.2034 43.2232C12.6462 43.736 13.4206 43.9305 14.0859 43.5465L28.0612 35.4779L34.8571 31.5542L29.3919 26.1143L12.2034 43.2232Z" fill="#FE444A"/>
<path d="M65.4384 25.3549C65.4384 25.5983 65.4285 25.8081 65.4093 25.9842C65.3897 26.1605 65.3627 26.301 65.3277 26.4058C65.2927 26.5108 65.25 26.5842 65.1995 26.626C65.1489 26.6682 65.0887 26.6889 65.0188 26.6889C64.9177 26.6889 64.7545 26.6135 64.5293 26.4624C64.3037 26.3112 64.0047 26.1477 63.6316 25.9715C63.2585 25.7954 62.8135 25.6317 62.2967 25.4805C61.7798 25.3296 61.1794 25.254 60.4956 25.254C59.765 25.254 59.1043 25.3904 58.5138 25.6631C57.9231 25.9358 57.4179 26.322 56.9982 26.821C56.5785 27.3203 56.2561 27.9203 56.0307 28.6208C55.8051 29.3215 55.6926 30.0956 55.6926 30.9429C55.6926 31.8743 55.8071 32.6946 56.0364 33.4036C56.2656 34.1128 56.5862 34.7062 56.9982 35.1845C57.4101 35.6628 57.9056 36.0237 58.4845 36.267C59.0635 36.5104 59.7028 36.6321 60.4023 36.6321C60.7441 36.6321 61.0822 36.5901 61.4166 36.5061C61.7506 36.4225 62.0615 36.2965 62.3493 36.1286V32.3529H59.493C59.3531 32.3529 59.2442 32.2586 59.1667 32.0698C59.0888 31.8811 59.0502 31.56 59.0502 31.107C59.0502 30.8722 59.0599 30.6749 59.0793 30.5154C59.0985 30.3562 59.1277 30.228 59.1667 30.1314C59.2054 30.0351 59.2522 29.9637 59.3066 29.9174C59.3608 29.8715 59.4232 29.8483 59.493 29.8483H64.5876C64.7119 29.8483 64.8227 29.8715 64.9199 29.9174C65.017 29.9637 65.1025 30.0328 65.1764 30.1251C65.2502 30.2176 65.3064 30.3288 65.3455 30.4586C65.3843 30.5889 65.4039 30.7378 65.4039 30.9055V37.3875C65.4039 37.6392 65.3631 37.8595 65.2815 38.0482C65.1999 38.2371 65.0326 38.3861 64.7802 38.4951C64.5276 38.6042 64.2148 38.7174 63.8417 38.8349C63.4686 38.9525 63.0819 39.0532 62.6817 39.137C62.2814 39.2208 61.8774 39.2837 61.4693 39.3258C61.0613 39.3676 60.6511 39.3887 60.2394 39.3887C59.0346 39.3887 57.9562 39.2019 57.0043 38.8286C56.0523 38.4553 55.2459 37.9141 54.5853 37.2049C53.9246 36.4959 53.4196 35.6316 53.0697 34.6122C52.7201 33.5928 52.5452 32.4369 52.5452 31.1447C52.5452 29.8105 52.7318 28.6128 53.1048 27.5513C53.4779 26.4899 54.0062 25.5878 54.6902 24.8453C55.374 24.1027 56.2 23.5344 57.1675 23.1399C58.1352 22.7457 59.2136 22.5483 60.4026 22.5483C61.0555 22.5483 61.65 22.5968 62.1863 22.6932C62.7225 22.7897 63.1907 22.907 63.591 23.0455C63.9911 23.1839 64.3234 23.333 64.5878 23.4923C64.8519 23.6517 65.0367 23.7902 65.1416 23.9077C65.2465 24.0253 65.3223 24.1909 65.3688 24.4047C65.4151 24.6187 65.4384 24.9354 65.4384 25.3549Z" fill="white"/>
<path d="M78.8917 32.9569C78.8917 33.9135 78.7751 34.7862 78.5419 35.5748C78.3087 36.3635 77.955 37.0433 77.4811 37.6137C77.007 38.1845 76.4124 38.625 75.6974 38.9353C74.9823 39.2457 74.1468 39.4011 73.191 39.4011C72.2662 39.4011 71.4616 39.2627 70.7778 38.9857C70.0938 38.7088 69.5264 38.3061 69.0758 37.7774C68.625 37.2488 68.2906 36.5986 68.0732 35.8265C67.8554 35.0546 67.7468 34.1736 67.7468 33.1835C67.7468 32.227 67.8653 31.3522 68.1024 30.5593C68.3394 29.7663 68.695 29.0865 69.1691 28.5203C69.643 27.9539 70.2357 27.5156 70.9469 27.205C71.658 26.8948 72.4916 26.7393 73.4475 26.7393C74.3802 26.7393 75.1885 26.8758 75.8725 27.1484C76.5564 27.4211 77.1217 27.8219 77.5688 28.3503C78.0157 28.879 78.3478 29.5293 78.5655 30.3012C78.7828 31.0733 78.8917 31.9584 78.8917 32.9569ZM75.8723 33.0828C75.8723 32.529 75.8316 32.0193 75.75 31.5535C75.6684 31.0878 75.5303 30.6832 75.3361 30.339C75.1418 29.9949 74.8832 29.7265 74.5608 29.5334C74.2381 29.3405 73.8322 29.244 73.3425 29.244C72.9072 29.244 72.5264 29.33 72.2 29.502C71.8737 29.674 71.6056 29.9258 71.3957 30.2572C71.1859 30.5887 71.0285 30.9871 70.9236 31.4529C70.8188 31.9185 70.7662 32.4493 70.7662 33.0451C70.7662 33.5989 70.8089 34.1087 70.8946 34.5744C70.9799 35.04 71.1179 35.4451 71.3083 35.789C71.4987 36.1332 71.7571 36.3994 72.0836 36.5882C72.41 36.7771 72.814 36.8714 73.2961 36.8714C73.7391 36.8714 74.1237 36.7856 74.4503 36.6134C74.7766 36.4415 75.0449 36.1918 75.2546 35.8646C75.4646 35.5374 75.6199 35.1408 75.7209 34.6752C75.8215 34.2091 75.8723 33.6786 75.8723 33.0828Z" fill="white"/>
<path d="M91.7272 32.9569C91.7272 33.9135 91.6106 34.7862 91.3774 35.5748C91.1442 36.3635 90.7904 37.0433 90.3165 37.6137C89.8424 38.1845 89.2478 38.625 88.5329 38.9353C87.8178 39.2457 86.9825 39.4011 86.0265 39.4011C85.1016 39.4011 84.2971 39.2627 83.6132 38.9857C82.9292 38.7088 82.3618 38.3061 81.9112 37.7774C81.4604 37.2488 81.126 36.5986 80.9086 35.8265C80.6909 35.0546 80.5823 34.1736 80.5823 33.1835C80.5823 32.227 80.7007 31.3522 80.9379 30.5593C81.1748 29.7663 81.5304 29.0865 82.0045 28.5203C82.4784 27.9539 83.0712 27.5156 83.7824 27.205C84.4934 26.8948 85.327 26.7393 86.283 26.7393C87.2157 26.7393 88.0239 26.8758 88.708 27.1484C89.3916 27.4211 89.9572 27.8219 90.4042 28.3503C90.8511 28.879 91.1832 29.5293 91.401 30.3012C91.6182 31.0733 91.7272 31.9584 91.7272 32.9569ZM88.7078 33.0828C88.7078 32.529 88.667 32.0193 88.5852 31.5535C88.5036 31.0878 88.3656 30.6832 88.1713 30.339C87.977 29.9949 87.7185 29.7265 87.396 29.5334C87.0734 29.3405 86.6675 29.244 86.1778 29.244C85.7424 29.244 85.3617 29.33 85.0353 29.502C84.709 29.674 84.4409 29.9258 84.231 30.2572C84.0212 30.5887 83.8638 30.9871 83.7587 31.4529C83.6539 31.9185 83.6013 32.4493 83.6013 33.0451C83.6013 33.5989 83.644 34.1087 83.7297 34.5744C83.815 35.04 83.953 35.4451 84.1434 35.789C84.3338 36.1332 84.5922 36.3994 84.9187 36.5882C85.2451 36.7771 85.6491 36.8714 86.1312 36.8714C86.5742 36.8714 86.9588 36.7856 87.2854 36.6134C87.6117 36.4415 87.88 36.1918 88.0897 35.8646C88.2997 35.5374 88.455 35.1408 88.556 34.6752C88.6571 34.2091 88.7078 33.6786 88.7078 33.0828Z" fill="white"/>
<path d="M103.42 28.2366C103.42 28.6395 103.377 28.9373 103.292 29.1302C103.206 29.3233 103.101 29.4197 102.977 29.4197H101.753C101.924 29.6211 102.046 29.8498 102.12 30.1056C102.194 30.3616 102.231 30.628 102.231 30.9049C102.231 31.5593 102.13 32.1405 101.928 32.648C101.726 33.1558 101.436 33.5838 101.059 33.9317C100.682 34.28 100.228 34.5444 99.6954 34.7247C99.1629 34.9054 98.5705 34.9953 97.9176 34.9953C97.5834 34.9953 97.2647 34.9513 96.9616 34.8631C96.6583 34.775 96.4253 34.6724 96.2621 34.5547C96.1688 34.6639 96.0853 34.7939 96.0116 34.945C95.9376 35.096 95.9009 35.2639 95.9009 35.4485C95.9009 35.6919 96 35.8911 96.1982 36.0463C96.3964 36.2017 96.6741 36.2875 97.0318 36.3044L99.5616 36.4052C100.152 36.4303 100.679 36.5206 101.141 36.6758C101.604 36.8311 101.992 37.0492 102.307 37.3302C102.622 37.6115 102.863 37.9491 103.03 38.3435C103.197 38.738 103.281 39.1868 103.281 39.6902C103.281 40.244 103.168 40.7664 102.943 41.2571C102.717 41.7481 102.379 42.1737 101.928 42.5346C101.478 42.8953 100.912 43.1807 100.232 43.3904C99.5521 43.6002 98.7575 43.7051 97.8482 43.7051C96.9623 43.7051 96.2064 43.6296 95.5808 43.4785C94.9551 43.3275 94.4423 43.1176 94.042 42.8492C93.6415 42.5806 93.3501 42.2595 93.1676 41.8864C92.9848 41.513 92.8936 41.104 92.8936 40.6593C92.8936 40.3824 92.9265 40.1181 92.9927 39.8663C93.0586 39.6146 93.1558 39.3732 93.284 39.1426C93.4122 38.9119 93.5696 38.6916 93.756 38.4818C93.9427 38.2722 94.1562 38.0708 94.3972 37.8777C94.0629 37.6848 93.8045 37.4227 93.6219 37.091C93.4392 36.7596 93.3479 36.3968 93.3479 36.0023C93.3479 35.5073 93.4528 35.0563 93.6627 34.6492C93.8727 34.2423 94.1446 33.8751 94.4788 33.5479C94.2067 33.2544 93.9893 32.902 93.8261 32.4906C93.6629 32.0796 93.5813 31.5676 93.5813 30.9552C93.5813 30.3007 93.6881 29.7155 93.9019 29.1994C94.1156 28.6835 94.4129 28.2472 94.7938 27.8904C95.1746 27.5338 95.6291 27.2611 96.1577 27.0723C96.6862 26.8834 97.2691 26.7891 97.9065 26.7891C98.2331 26.7891 98.5457 26.8101 98.845 26.852C99.144 26.8939 99.4221 26.9526 99.6786 27.0281H102.978C103.11 27.0281 103.217 27.1205 103.298 27.305C103.379 27.4901 103.42 27.8006 103.42 28.2366ZM100.342 39.8538C100.342 39.4762 100.202 39.1868 99.9227 38.9853C99.6429 38.7839 99.2581 38.6751 98.7685 38.6581L96.6818 38.5952C96.4797 38.7547 96.3184 38.908 96.198 39.0547C96.0773 39.2014 95.9803 39.342 95.9067 39.4762C95.8327 39.6104 95.7841 39.7406 95.7608 39.8665C95.7375 39.9923 95.726 40.1223 95.726 40.2566C95.726 40.6761 95.9221 40.9949 96.3146 41.2133C96.7069 41.4314 97.2607 41.5405 97.9759 41.5405C98.4188 41.5405 98.792 41.4921 99.095 41.3957C99.3981 41.2991 99.6429 41.1711 99.8295 41.0119C100.016 40.8522 100.148 40.6739 100.226 40.4769C100.303 40.2796 100.342 40.072 100.342 39.8538ZM99.6546 30.8924C99.6546 30.2883 99.4991 29.8185 99.1884 29.4828C98.8775 29.1472 98.4382 28.9793 97.871 28.9793C97.5834 28.9793 97.3308 29.0318 97.1132 29.1367C96.8955 29.2417 96.7148 29.3844 96.5711 29.5645C96.4273 29.7451 96.3204 29.9546 96.2505 30.1938C96.1805 30.4328 96.1457 30.6827 96.1457 30.9428C96.1457 31.5134 96.301 31.9644 96.6119 32.2957C96.9227 32.6273 97.3541 32.7929 97.906 32.7929C98.2013 32.7929 98.4578 32.7425 98.6755 32.6417C98.8929 32.5411 99.0736 32.4027 99.2176 32.2265C99.3612 32.0502 99.47 31.8469 99.544 31.6161C99.6176 31.3854 99.6546 31.1442 99.6546 30.8924Z" fill="white"/>
<path d="M108.305 38.6834C108.305 38.7674 108.282 38.8407 108.235 38.9037C108.188 38.9666 108.108 39.0191 107.996 39.0611C107.883 39.1033 107.734 39.1344 107.547 39.1555C107.361 39.1764 107.123 39.1869 106.836 39.1869C106.548 39.1869 106.311 39.1764 106.125 39.1555C105.939 39.1344 105.789 39.1033 105.676 39.0611C105.563 39.0193 105.484 38.9668 105.437 38.9037C105.39 38.8408 105.367 38.7674 105.367 38.6834V22.1325C105.367 22.0487 105.39 21.9733 105.437 21.9059C105.484 21.839 105.563 21.7824 105.676 21.736C105.789 21.6901 105.938 21.6542 106.125 21.6291C106.311 21.6039 106.548 21.5913 106.836 21.5913C107.123 21.5913 107.361 21.6039 107.547 21.6291C107.734 21.6542 107.883 21.6901 107.996 21.736C108.108 21.7822 108.188 21.839 108.235 21.9059C108.282 21.9733 108.305 22.0487 108.305 22.1325V38.6834Z" fill="white"/>
<path d="M120.837 32.7432C120.837 33.1292 120.758 33.4147 120.598 33.5991C120.439 33.7837 120.219 33.876 119.94 33.876H113.609C113.609 34.3541 113.662 34.7885 113.767 35.1786C113.872 35.5688 114.039 35.9003 114.268 36.173C114.497 36.4458 114.793 36.6533 115.154 36.796C115.515 36.9387 115.948 37.0098 116.454 37.0098C116.967 37.0098 117.417 36.97 117.806 36.8903C118.195 36.8106 118.531 36.7225 118.815 36.626C119.098 36.5296 119.333 36.4415 119.52 36.3616C119.706 36.2821 119.858 36.2422 119.974 36.2422C120.045 36.2422 120.103 36.2569 120.149 36.2862C120.196 36.3156 120.235 36.3679 120.266 36.4434C120.297 36.519 120.319 36.626 120.33 36.7643C120.342 36.9027 120.348 37.0771 120.348 37.2867C120.348 37.4713 120.344 37.6287 120.336 37.7586C120.328 37.8888 120.316 37.9999 120.301 38.0922C120.285 38.1847 120.262 38.2622 120.231 38.3249C120.2 38.3878 120.159 38.4489 120.108 38.5075C120.058 38.5663 119.92 38.6459 119.695 38.7467C119.469 38.8473 119.182 38.9461 118.832 39.0424C118.482 39.1388 118.082 39.2228 117.631 39.2942C117.18 39.3654 116.699 39.4011 116.186 39.4011C115.261 39.4011 114.45 39.2751 113.755 39.0236C113.059 38.7718 112.478 38.3901 112.012 37.8782C111.546 37.3666 111.198 36.7203 110.969 35.9399C110.739 35.1595 110.625 34.2452 110.625 33.1961C110.625 32.1976 110.745 31.2977 110.986 30.4962C111.227 29.6951 111.577 29.0153 112.035 28.4573C112.494 27.8994 113.051 27.4736 113.708 27.1798C114.365 26.8863 115.105 26.7393 115.929 26.7393C116.8 26.7393 117.544 26.8778 118.162 27.1547C118.78 27.4316 119.287 27.8154 119.683 28.3063C120.079 28.7972 120.371 29.3782 120.557 30.0495C120.744 30.7209 120.837 31.4508 120.837 32.2394L120.837 32.7432ZM117.993 31.8369C118.016 30.9475 117.851 30.2491 117.497 29.7413C117.143 29.2338 116.597 28.9798 115.859 28.9798C115.486 28.9798 115.162 29.0554 114.886 29.2064C114.61 29.3575 114.381 29.561 114.198 29.8168C114.015 30.0728 113.875 30.3749 113.778 30.723C113.681 31.0713 113.625 31.4427 113.609 31.8369H117.993Z" fill="white"/>
<path d="M139.152 27.7712C139.152 28.6859 139.02 29.4955 138.756 30.2004C138.491 30.9052 138.107 31.4989 137.602 31.9813C137.096 32.4639 136.477 32.8309 135.742 33.0827C135.008 33.3344 134.143 33.4602 133.148 33.4602H131.889V38.6583C131.889 38.7422 131.864 38.8177 131.813 38.8848C131.763 38.9522 131.679 39.0066 131.563 39.0484C131.446 39.0905 131.291 39.124 131.097 39.1492C130.902 39.1743 130.654 39.1869 130.35 39.1869C130.055 39.1869 129.808 39.1743 129.61 39.1492C129.412 39.124 129.254 39.0905 129.138 39.0484C129.021 39.0064 128.94 38.952 128.893 38.8848C128.846 38.8177 128.823 38.7422 128.823 38.6583V24.0078C128.823 23.6136 128.918 23.3177 129.109 23.1205C129.299 22.9235 129.55 22.8247 129.861 22.8247H133.416C133.774 22.8247 134.114 22.8395 134.436 22.8687C134.759 22.8981 135.146 22.9612 135.596 23.0576C136.047 23.1541 136.504 23.3324 136.966 23.5925C137.428 23.8528 137.823 24.1822 138.149 24.5806C138.476 24.9792 138.724 25.4448 138.895 25.9777C139.066 26.5106 139.152 27.1084 139.152 27.7712ZM135.946 28.0104C135.946 27.4399 135.853 26.9701 135.666 26.6007C135.48 26.2317 135.25 25.9588 134.978 25.7826C134.706 25.6063 134.421 25.4953 134.122 25.4491C133.822 25.403 133.513 25.3799 133.195 25.3799H131.889V30.9052H133.265C133.754 30.9052 134.164 30.834 134.495 30.6912C134.825 30.5486 135.095 30.3495 135.305 30.0933C135.515 29.8375 135.674 29.5312 135.783 29.1746C135.892 28.8181 135.946 28.4301 135.946 28.0104Z" fill="white"/>
<path d="M144.293 38.6834C144.293 38.7674 144.27 38.8407 144.223 38.9037C144.176 38.9668 144.097 39.0191 143.984 39.0611C143.871 39.1033 143.722 39.1344 143.535 39.1555C143.349 39.1764 143.111 39.1869 142.824 39.1869C142.536 39.1869 142.299 39.1764 142.113 39.1555C141.926 39.1344 141.777 39.1033 141.664 39.0611C141.551 39.0193 141.472 38.9668 141.425 38.9037C141.379 38.8408 141.355 38.7674 141.355 38.6834V22.1325C141.355 22.0487 141.379 21.9733 141.425 21.9059C141.472 21.839 141.551 21.7824 141.664 21.736C141.777 21.6901 141.926 21.6542 142.113 21.6291C142.299 21.6039 142.536 21.5913 142.824 21.5913C143.111 21.5913 143.349 21.6039 143.535 21.6291C143.722 21.6542 143.871 21.6901 143.984 21.736C144.097 21.7822 144.176 21.839 144.223 21.9059C144.27 21.9733 144.293 22.0487 144.293 22.1325V38.6834Z" fill="white"/>
<path d="M156.079 38.7217C156.079 38.8393 156.04 38.9314 155.963 38.9986C155.885 39.0659 155.762 39.1138 155.595 39.1434C155.428 39.1727 155.181 39.1874 154.855 39.1874C154.505 39.1874 154.251 39.1727 154.091 39.1434C153.932 39.1138 153.819 39.0659 153.753 38.9986C153.687 38.9314 153.654 38.8393 153.654 38.7217V37.8281C153.227 38.3232 152.739 38.7091 152.191 38.986C151.643 39.2629 151.035 39.4014 150.367 39.4014C149.815 39.4014 149.308 39.3238 148.845 39.1686C148.383 39.0134 147.983 38.7827 147.644 38.4762C147.306 38.1701 147.044 37.7903 146.857 37.3372C146.671 36.884 146.578 36.3554 146.578 35.7512C146.578 35.0968 146.696 34.5286 146.933 34.0458C147.17 33.5634 147.524 33.1648 147.994 32.8501C148.464 32.5355 149.049 32.3026 149.749 32.1515C150.448 32.0006 151.26 31.9249 152.185 31.9249H153.199V31.2453C153.199 30.893 153.166 30.5846 153.1 30.3201C153.034 30.0558 152.925 29.8355 152.774 29.6594C152.622 29.4833 152.42 29.3533 152.168 29.2693C151.915 29.1855 151.602 29.1433 151.229 29.1433C150.739 29.1433 150.302 29.2021 149.918 29.3196C149.533 29.4372 149.193 29.5673 148.898 29.7099C148.602 29.8527 148.355 29.9827 148.157 30.1C147.959 30.2176 147.798 30.2763 147.673 30.2763C147.588 30.2763 147.512 30.247 147.446 30.1882C147.38 30.1296 147.326 30.0456 147.283 29.9365C147.24 29.8275 147.207 29.6932 147.184 29.5336C147.161 29.3743 147.149 29.1981 147.149 29.005C147.149 28.7451 147.168 28.5394 147.207 28.3883C147.246 28.2371 147.32 28.101 147.429 27.9791C147.537 27.8576 147.728 27.7233 148 27.5763C148.272 27.4296 148.59 27.2931 148.956 27.1673C149.321 27.0413 149.719 26.9386 150.151 26.8588C150.582 26.7792 151.027 26.7393 151.486 26.7393C152.302 26.7393 152.999 26.8254 153.578 26.9973C154.157 27.1693 154.633 27.4338 155.006 27.7903C155.379 28.1471 155.651 28.6064 155.822 29.1685C155.993 29.7308 156.079 30.3978 156.079 31.1697V38.7217H156.079ZM153.2 33.9137H152.08C151.606 33.9137 151.202 33.9515 150.868 34.0269C150.534 34.1024 150.262 34.2156 150.052 34.3667C149.842 34.5178 149.688 34.7002 149.591 34.9142C149.494 35.1281 149.446 35.3737 149.446 35.6504C149.446 36.1204 149.584 36.4895 149.86 36.758C150.135 37.0266 150.518 37.1609 151.008 37.1609C151.42 37.1609 151.799 37.0477 152.145 36.8211C152.49 36.5945 152.842 36.2632 153.2 35.8269V33.9137Z" fill="white"/>
<path d="M164.601 39.1115L163.342 43.0888C163.272 43.2983 163.082 43.4495 162.771 43.5418C162.46 43.6341 162.006 43.6801 161.407 43.6801C161.096 43.6801 160.848 43.6653 160.661 43.6361C160.475 43.6065 160.335 43.5584 160.242 43.4913C160.148 43.424 160.098 43.3402 160.09 43.2395C160.082 43.1387 160.105 43.0172 160.16 42.8744L161.547 39.1112C161.446 39.0609 161.355 38.9833 161.273 38.8783C161.192 38.7736 161.131 38.6624 161.092 38.5448L157.513 28.2241C157.412 27.9305 157.362 27.706 157.362 27.5506C157.362 27.3954 157.408 27.2737 157.502 27.1857C157.595 27.0976 157.752 27.0368 157.974 27.0031C158.195 26.9698 158.489 26.9528 158.854 26.9528C159.188 26.9528 159.452 26.9591 159.647 26.9717C159.841 26.9843 159.992 27.0157 160.101 27.066C160.21 27.1163 160.292 27.194 160.346 27.2989C160.4 27.4039 160.455 27.5528 160.509 27.7456L162.957 35.2597H162.992L165.231 27.5947C165.277 27.3766 165.338 27.2317 165.412 27.1604C165.485 27.0891 165.608 27.0366 165.779 27.003C165.95 26.9696 166.249 26.9526 166.676 26.9526C167.011 26.9526 167.288 26.9695 167.51 27.003C167.731 27.0366 167.895 27.0995 168 27.1918C168.104 27.2843 168.157 27.4079 168.157 27.563C168.157 27.7184 168.126 27.9008 168.064 28.1106L164.601 39.1115Z" fill="white"/>
<path d="M59.7935 9.99194C59.7935 10.1187 59.7879 10.2279 59.7772 10.3197C59.7663 10.4113 59.7509 10.4845 59.7313 10.5393C59.7116 10.594 59.6876 10.6321 59.6592 10.654C59.6307 10.6759 59.597 10.6868 59.5576 10.6868C59.5008 10.6868 59.409 10.6474 59.2822 10.5689C59.1554 10.4902 58.9873 10.405 58.7775 10.3134C58.5678 10.2216 58.3176 10.1364 58.0271 10.0577C57.7364 9.97901 57.399 9.93975 57.0145 9.93975C56.6038 9.93975 56.2324 10.0108 55.9004 10.1527C55.5683 10.2948 55.2844 10.4958 55.0483 10.7557C54.8123 11.0157 54.631 11.328 54.5043 11.6929C54.3775 12.0579 54.3143 12.4609 54.3143 12.9022C54.3143 13.3872 54.3787 13.8143 54.5076 14.1835C54.6364 14.5527 54.8166 14.8618 55.0483 15.111C55.2798 15.36 55.5584 15.548 55.8839 15.6746C56.2094 15.8014 56.5688 15.8647 56.9619 15.8647C57.1542 15.8647 57.3442 15.8429 57.5322 15.7991C57.7201 15.7555 57.8948 15.6899 58.0566 15.6025V13.6364H56.4508C56.3721 13.6364 56.3109 13.5872 56.2674 13.489C56.2237 13.3906 56.202 13.2235 56.202 12.9875C56.202 12.8653 56.2074 12.7625 56.2183 12.6795C56.2292 12.5966 56.2455 12.5299 56.2674 12.4796C56.2892 12.4295 56.3155 12.3923 56.3461 12.3683C56.3767 12.3443 56.4117 12.3323 56.451 12.3323H59.3152C59.385 12.3323 59.4473 12.3443 59.502 12.3683C59.5566 12.3924 59.6045 12.4285 59.6461 12.4764C59.6876 12.5245 59.7192 12.5825 59.7412 12.6501C59.7629 12.7179 59.774 12.7955 59.774 12.8827V16.258C59.774 16.3891 59.751 16.5038 59.7051 16.602C59.6592 16.7003 59.5652 16.778 59.4233 16.8348C59.2812 16.8915 59.1054 16.9505 58.8957 17.0117C58.6859 17.0731 58.4685 17.1254 58.2434 17.1691C58.0184 17.2126 57.7913 17.2454 57.5618 17.2674C57.3323 17.2891 57.1018 17.3002 56.8703 17.3002C56.1929 17.3002 55.5868 17.2028 55.0515 17.0085C54.5162 16.8142 54.0629 16.5322 53.6915 16.163C53.3201 15.7938 53.036 15.3438 52.8394 14.8128C52.6429 14.282 52.5444 13.6801 52.5444 13.0073C52.5444 12.3125 52.6493 11.6889 52.8591 11.1361C53.0688 10.5835 53.3658 10.1136 53.7505 9.72693C54.1348 9.34022 54.5992 9.04428 55.1431 8.83877C55.6871 8.63343 56.2934 8.53076 56.9619 8.53076C57.3289 8.53076 57.6633 8.55591 57.9647 8.60623C58.2662 8.65654 58.5294 8.71757 58.7544 8.78981C58.9795 8.86189 59.1663 8.93957 59.3148 9.02252C59.4634 9.10547 59.5671 9.17754 59.6263 9.23874C59.6852 9.29993 59.7279 9.38611 59.7541 9.49762C59.7804 9.60845 59.7935 9.77334 59.7935 9.99194Z" fill="white"/>
<path d="M66.5704 16.4796C66.5704 16.6064 66.5648 16.7123 66.5541 16.7975C66.5431 16.8826 66.5267 16.9515 66.505 17.004C66.4831 17.0564 66.4559 17.0948 66.4231 17.1187C66.3903 17.1427 66.3542 17.1548 66.3149 17.1548H62.0548C61.9107 17.1548 61.7893 17.1121 61.6911 17.0269C61.5927 16.9418 61.5437 16.8031 61.5437 16.6108V9.21778C61.5437 9.02569 61.5928 8.88682 61.6911 8.80166C61.7893 8.7165 61.9107 8.67383 62.0548 8.67383H66.2888C66.328 8.67383 66.363 8.68471 66.3936 8.70647C66.4242 8.7284 66.4504 8.76664 66.4724 8.8212C66.4941 8.87577 66.5106 8.94563 66.5215 9.03096C66.5322 9.11613 66.5378 9.22423 66.5378 9.35528C66.5378 9.47767 66.5324 9.58136 66.5215 9.66652C66.5104 9.75168 66.4941 9.82053 66.4724 9.87306C66.4504 9.92541 66.4242 9.96382 66.3936 9.98779C66.363 10.0119 66.328 10.0238 66.2888 10.0238H63.2607V12.0951H65.8234C65.8628 12.0951 65.8988 12.1071 65.9315 12.1311C65.9643 12.1551 65.9915 12.1923 66.0134 12.2426C66.0352 12.2929 66.0516 12.3606 66.0625 12.4457C66.0732 12.5309 66.0788 12.6348 66.0788 12.757C66.0788 12.8838 66.0732 12.9887 66.0625 13.0716C66.0516 13.1547 66.0352 13.2214 66.0134 13.2715C65.9915 13.3218 65.9643 13.3579 65.9315 13.3796C65.8988 13.4016 65.8628 13.4124 65.8234 13.4124H63.2607V15.8046H66.3149C66.3542 15.8046 66.3903 15.8167 66.4231 15.8406C66.4559 15.8648 66.4831 15.9029 66.505 15.9554C66.5267 16.0079 66.5431 16.0766 66.5541 16.1619C66.565 16.2471 66.5704 16.353 66.5704 16.4796Z" fill="white"/>
<path d="M73.7341 9.38115C73.7341 9.50796 73.7287 9.61606 73.7178 9.70564C73.7069 9.79523 73.6904 9.8673 73.6687 9.92187C73.6467 9.9766 73.6195 10.0169 73.5867 10.0431C73.5541 10.0692 73.5179 10.0823 73.4786 10.0823H71.3552V16.9184C71.3552 16.962 71.3409 17.0013 71.3125 17.0363C71.284 17.0713 71.2371 17.0997 71.1716 17.1215C71.1062 17.1434 71.0176 17.1609 70.9063 17.1738C70.7947 17.1869 70.656 17.1936 70.4901 17.1936C70.3241 17.1936 70.1854 17.1869 70.074 17.1738C69.9625 17.1607 69.8741 17.1432 69.8085 17.1215C69.7429 17.0997 69.696 17.0713 69.6676 17.0363C69.639 17.0015 69.6249 16.9622 69.6249 16.9184V10.0823H67.5015C67.4578 10.0823 67.4206 10.0692 67.39 10.0431C67.3592 10.0169 67.3331 9.9766 67.3113 9.92187C67.2894 9.8673 67.273 9.79523 67.2622 9.70564C67.2511 9.61606 67.2458 9.50796 67.2458 9.38115C67.2458 9.25009 67.2513 9.13858 67.2622 9.04696C67.273 8.95517 67.2894 8.88208 67.3113 8.82735C67.3331 8.77278 67.3592 8.73352 67.39 8.70938C67.4206 8.68541 67.4577 8.67334 67.5015 8.67334H73.4788C73.518 8.67334 73.5541 8.68541 73.5869 8.70938C73.6197 8.73335 73.6469 8.77278 73.6688 8.82735C73.6906 8.88208 73.7071 8.95517 73.7179 9.04696C73.7287 9.13875 73.7341 9.25009 73.7341 9.38115Z" fill="white"/>
<path d="M79.5017 16.919C79.5017 16.9627 79.4875 17.002 79.4591 17.037C79.4305 17.072 79.3836 17.1004 79.3182 17.1222C79.2527 17.1441 79.1652 17.1616 79.056 17.1745C78.9467 17.1876 78.807 17.1942 78.6367 17.1942C78.4706 17.1942 78.3319 17.1876 78.2206 17.1745C78.1091 17.1614 78.0205 17.1439 77.9551 17.1222C77.8894 17.1004 77.8425 17.072 77.8141 17.037C77.7856 17.0022 77.7715 16.9629 77.7715 16.919V8.90997C77.7715 8.86629 77.7856 8.82701 77.8141 8.792C77.8425 8.75715 77.8905 8.72877 77.9583 8.70684C78.0259 8.68508 78.1145 8.66757 78.2238 8.65431C78.3329 8.64122 78.4706 8.63477 78.6367 8.63477C78.807 8.63477 78.9469 8.64139 79.056 8.65431C79.1652 8.6674 79.2527 8.68491 79.3182 8.70684C79.3838 8.72877 79.4307 8.75715 79.4591 8.792C79.4875 8.82701 79.5017 8.86629 79.5017 8.90997V16.919Z" fill="white"/>
<path d="M86.993 9.38115C86.993 9.50796 86.9875 9.61606 86.9767 9.70564C86.9656 9.79523 86.9493 9.8673 86.9275 9.92187C86.9056 9.9766 86.8784 10.0169 86.8456 10.0431C86.813 10.0692 86.7768 10.0823 86.7375 10.0823H84.6139V16.9184C84.6139 16.962 84.5996 17.0013 84.5712 17.0363C84.5427 17.0713 84.4958 17.0997 84.4303 17.1215C84.3649 17.1434 84.2763 17.1609 84.165 17.1738C84.0535 17.1869 83.9148 17.1936 83.7489 17.1936C83.5828 17.1936 83.4441 17.1869 83.3327 17.1738C83.2212 17.1607 83.1328 17.1432 83.0672 17.1215C83.0016 17.0997 82.9547 17.0713 82.9263 17.0363C82.8977 17.0015 82.8836 16.9622 82.8836 16.9184V10.0823H80.7601C80.7164 10.0823 80.6791 10.0692 80.6485 10.0431C80.6179 10.0169 80.5916 9.9766 80.5698 9.92187C80.5479 9.8673 80.5316 9.79523 80.5207 9.70564C80.5098 9.61606 80.5044 9.50796 80.5044 9.38115C80.5044 9.25009 80.5098 9.13858 80.5207 9.04696C80.5316 8.95517 80.5479 8.88208 80.5698 8.82735C80.5916 8.77278 80.6178 8.73352 80.6485 8.70938C80.6791 8.68541 80.7162 8.67334 80.7601 8.67334H86.7373C86.7766 8.67334 86.8128 8.68541 86.8454 8.70938C86.8782 8.73335 86.9054 8.77278 86.9274 8.82735C86.9491 8.88208 86.9656 8.95517 86.9765 9.04696C86.9875 9.13875 86.993 9.25009 86.993 9.38115Z" fill="white"/>
<path d="M98.6593 12.8155C98.6593 13.5191 98.5718 14.1482 98.3971 14.703C98.2223 15.258 97.9622 15.7287 97.6172 16.1154C97.2719 16.5021 96.8449 16.797 96.3358 17.0002C95.8267 17.2035 95.2381 17.305 94.5696 17.305C93.9099 17.305 93.3341 17.2188 92.8425 17.0462C92.3509 16.8735 91.9413 16.6102 91.6136 16.2563C91.2858 15.9024 91.04 15.4525 90.8762 14.9062C90.7123 14.36 90.6304 13.7134 90.6304 12.9661C90.6304 12.2803 90.7178 11.6631 90.8925 11.1147C91.0672 10.5663 91.3271 10.0999 91.6724 9.7154C92.0174 9.3309 92.4446 9.03598 92.9537 8.83064C93.4626 8.6253 94.0537 8.52246 94.7266 8.52246C95.369 8.52246 95.9359 8.60762 96.4273 8.77811C96.9189 8.94843 97.3296 9.21072 97.6595 9.56462C97.9894 9.91853 98.2385 10.3654 98.4068 10.9049C98.5752 11.4446 98.6593 12.0814 98.6593 12.8155ZM96.8504 12.9073C96.8504 12.4616 96.8154 12.0564 96.7455 11.6915C96.6755 11.3267 96.5565 11.0142 96.3882 10.7542C96.2199 10.4943 95.9961 10.2932 95.7164 10.1512C95.4368 10.0093 95.0872 9.93824 94.6678 9.93824C94.2439 9.93824 93.89 10.018 93.6059 10.1774C93.3219 10.337 93.0924 10.55 92.9178 10.8164C92.7431 11.0829 92.6195 11.3943 92.5474 11.7504C92.4754 12.1067 92.4393 12.4834 92.4393 12.881C92.4393 13.3442 92.4743 13.7605 92.5442 14.1297C92.6141 14.4989 92.732 14.8145 92.8981 15.0767C93.0642 15.3388 93.287 15.5387 93.5667 15.6764C93.8461 15.814 94.198 15.8829 94.6219 15.8829C95.0457 15.8829 95.3996 15.8042 95.6836 15.6469C95.9677 15.4897 96.197 15.2755 96.3719 15.0046C96.5465 14.7336 96.67 14.418 96.7421 14.0574C96.8143 13.6971 96.8504 13.3136 96.8504 12.9073Z" fill="white"/>
<path d="M107.101 16.5512C107.101 16.6518 107.084 16.7412 107.049 16.8199C107.014 16.8986 106.967 16.9641 106.908 17.0166C106.849 17.0689 106.779 17.1074 106.698 17.1313C106.617 17.1553 106.535 17.1675 106.452 17.1675H105.718C105.565 17.1675 105.433 17.1522 105.322 17.1216C105.21 17.091 105.108 17.0355 105.014 16.9545C104.92 16.8736 104.829 16.7645 104.742 16.6268C104.654 16.4891 104.556 16.3112 104.447 16.0926L102.336 12.1274C102.214 11.8914 102.089 11.637 101.963 11.3638C101.836 11.0908 101.722 10.8255 101.622 10.5674H101.609C101.626 10.8821 101.639 11.1955 101.648 11.508C101.657 11.8204 101.661 12.1427 101.661 12.4746V16.9117C101.661 16.9554 101.649 16.9947 101.625 17.0297C101.601 17.0647 101.56 17.0943 101.501 17.1181C101.442 17.142 101.362 17.1607 101.261 17.1738C101.161 17.1869 101.032 17.1935 100.875 17.1935C100.722 17.1935 100.595 17.1869 100.495 17.1738C100.394 17.1607 100.315 17.1422 100.259 17.1181C100.202 17.0941 100.162 17.0645 100.141 17.0297C100.119 16.9947 100.108 16.9554 100.108 16.9117V9.28934C100.108 9.084 100.168 8.92999 100.288 8.82715C100.408 8.72448 100.556 8.67315 100.731 8.67315H101.655C101.821 8.67315 101.96 8.68726 102.074 8.71564C102.188 8.7442 102.289 8.79112 102.379 8.85657C102.468 8.92201 102.553 9.01278 102.631 9.12854C102.71 9.24429 102.791 9.38742 102.874 9.55791L104.525 12.6581C104.621 12.8459 104.716 13.0305 104.81 13.2119C104.904 13.3932 104.995 13.5746 105.082 13.7558C105.17 13.9372 105.255 14.1152 105.338 14.2899C105.421 14.4648 105.502 14.6396 105.581 14.8143H105.587C105.574 14.5085 105.564 14.1894 105.558 13.8573C105.551 13.5253 105.548 13.2085 105.548 12.9071V8.92864C105.548 8.88496 105.561 8.84568 105.587 8.81067C105.613 8.77582 105.657 8.74522 105.718 8.71905C105.78 8.69287 105.86 8.67434 105.961 8.66329C106.061 8.65258 106.19 8.64697 106.348 8.64697C106.496 8.64697 106.621 8.65241 106.721 8.66329C106.822 8.67434 106.899 8.69287 106.954 8.71905C107.009 8.74522 107.047 8.77582 107.069 8.81067C107.09 8.84568 107.101 8.88496 107.101 8.92864V16.5512H107.101Z" fill="white"/>
</svg>
