<svg width="170" height="45" viewBox="0 0 170 45" fill="none" xmlns="http://www.w3.org/2000/svg">
<path d="M8.37537 20.8009C8.65079 19.4207 9.29525 18.5539 9.33647 18.5002C9.5954 18.1631 10.0942 18.0842 10.4538 18.3256C10.8114 18.5666 10.8805 19.0248 10.6377 19.3721C10.2382 19.9436 9.71609 21.489 9.95938 22.8474C10.2029 24.2059 10.6161 25.3048 12.8744 25.7113C14.3072 25.9687 14.4489 27.0691 14.5514 27.8723C14.6655 28.7546 14.8071 29.8533 16.1724 31.0568C16.7099 31.5314 17.3985 31.8858 18.1273 32.2595C18.4892 32.4455 18.8669 32.64 19.2406 32.86C19.8024 31.666 20.2668 29.6214 20.2279 28.4005C20.1801 26.8884 19.6568 25.4462 18.7156 24.2294L18.5124 23.9664L18.5771 23.647C18.6925 23.0806 18.7403 22.5059 18.728 21.9366C18.4439 22.0299 18.0766 22.0922 17.7145 22.0888C16.1796 22.074 14.9988 21.4824 14.2001 20.5281C12.8213 18.8823 13.1379 17.0517 13.203 16.0931C13.2679 15.135 13.3275 14.3723 13.4434 13.2903C13.6226 11.6133 13.8446 9.52562 13.6767 8.78393C13.1587 6.50049 11.9815 6.53812 11.5387 6.55207C11.0961 6.56602 10.7275 6.24072 10.7144 5.82623C10.7011 5.41088 11.0488 5.06339 11.4912 5.04923C12.5949 5.01456 14.5505 5.41088 15.2428 8.46455C15.4632 9.436 15.2466 11.4688 15.0367 13.4343C14.9213 14.5133 14.8243 15.2954 14.8035 16.166C14.7828 17.0371 14.6418 18.6399 15.4639 19.601C15.9798 20.2043 16.7428 20.5312 17.8109 20.587C18.1981 20.6111 19.0483 20.2288 19.5023 19.4518C19.7711 18.8494 19.9045 18.1964 19.8838 17.5365C19.8529 16.5634 19.498 15.6406 18.8589 14.8669L18.4674 14.3935L18.8737 13.9287C19.6263 13.0676 20.0214 11.986 19.9863 10.8824C19.9569 9.95597 19.6342 9.07224 19.0533 8.32652L18.6938 7.86574L19.0728 7.4153C19.7912 6.56327 20.1677 5.49902 20.1334 4.41639C20.0491 1.75164 18.2097 -0.0530353 15.6613 0.0274967C13.9014 0.0832984 12.5829 0.813161 11.848 2.5149C10.0665 2.0427 7.98265 3.59035 7.51743 5.12849C7.03572 6.72201 7.32931 8.62963 9.3462 11.0439C9.64529 11.4017 9.96382 11.723 10.2944 11.9993C10.6246 12.2743 10.6537 12.7494 10.3589 13.0599C10.206 13.2214 9.99722 13.3072 9.78542 13.3138C9.58779 13.3199 9.38784 13.2576 9.22868 13.125C8.82729 12.7902 8.44238 12.4034 8.08496 11.9756C6.64321 10.2496 6.1281 8.30602 5.94738 6.99109C2.90197 9.07308 2.51009 12.9042 3.89731 15.0107C2.11821 17.6887 4.88377 20.965 8.37537 20.8009Z" fill="#0196FC"/>
<path d="M17.3549 33.5794C16.5417 33.2376 15.759 32.7599 15.074 32.1554C13.2866 30.5798 13.092 29.0624 12.9626 28.0584C12.8574 27.24 12.8244 27.2347 12.5671 27.188C11.2662 26.9544 10.371 26.5336 9.74706 25.9982C8.97387 26.3364 8.21548 26.4892 7.515 26.5114C5.45225 26.5769 3.8729 25.6074 3.78307 25.5505C3.41634 25.3203 3.31827 24.8536 3.56451 24.5078C3.81097 24.1631 4.30874 24.069 4.67293 24.2973C4.76044 24.3516 6.68791 25.5118 8.80541 24.7503C8.59932 24.3119 8.19476 23.396 8.22203 22.3197C4.85914 22.4119 1.74758 20.4241 1.61336 17.0965C-2.73345 23.4831 2.44531 29.4672 8.35244 31.1599C9.94194 31.6156 11.0882 33.2078 11.1036 34.8671C11.1057 35.1571 11.0664 35.5925 10.8899 36.0801C11.5177 36.1981 12.2562 36.412 12.9935 36.7521C12.8123 35.614 12.9554 34.6612 12.9658 34.5984C13.0303 34.1877 13.4405 33.9047 13.8749 33.9618C14.3116 34.0205 14.6134 34.4014 14.5498 34.8115C14.5464 34.8313 14.1837 37.2232 15.2391 38.3418C15.7996 38.9359 16.3593 39.9218 16.5208 41.0162C16.5815 41.4267 16.2756 41.8078 15.8375 41.8664C15.8083 41.8698 15.7793 41.8725 15.7506 41.8734C15.3475 41.8862 14.9916 41.6123 14.9353 41.227C14.4619 38.0203 11.1719 37.5751 10.0089 37.4585C9.48348 37.9928 8.71367 38.5018 7.57883 38.8806C7.49851 38.908 7.41735 38.9214 7.33703 38.9239C6.99778 38.9349 6.6765 38.7415 6.55792 38.4251C6.41102 38.0342 6.63021 37.6041 7.04787 37.4646C8.64033 36.9322 9.51202 36.0161 9.50187 34.8848C9.49342 33.8819 8.76588 32.873 7.84579 32.5883C4.55519 31.5703 2.1403 29.9062 0.646556 27.638C-1.28451 32.687 2.90018 34.8305 5.57653 34.5143C6.00963 34.4695 6.41482 34.755 6.4683 35.167C6.52072 35.5796 6.20789 35.9548 5.76888 36.0061C5.55138 36.0315 5.33916 36.0471 5.13181 36.0539C4.20961 36.0833 3.39182 35.9353 2.68712 35.7016C2.05724 38.4906 4.91072 43.1407 10.1235 41.2285C10.7762 44.8845 16.1661 46.5755 19.2735 43.1016C22.3305 39.6838 20.2092 34.7798 17.3549 33.5794Z" fill="#0196FC"/>
<path d="M21.2062 10.4524C21.2121 10.6401 21.2331 10.8261 21.2648 11.0096C21.8858 10.1848 22.5759 9.49472 23.0287 9.12884C23.2109 8.98215 23.3867 8.84286 23.5567 8.708C25.2423 7.37193 26.0874 6.70168 25.9405 4.45566C25.9138 4.05553 26.2381 3.7091 26.6646 3.68247C27.1011 3.65372 27.4587 3.96 27.4845 4.36033C27.6803 7.33664 26.3679 8.37721 24.5526 9.81685C24.3861 9.94938 24.2127 10.0863 24.0343 10.2303C23.355 10.7782 22.4926 11.768 21.9401 12.7192L21.9496 12.7363L21.789 13.0641C21.4774 13.7004 21.3303 14.3725 21.3525 15.0614C21.373 15.7126 21.5442 16.3414 21.8617 16.9318L22.0173 17.2222L21.8904 17.5251C21.555 18.3226 21.399 19.1607 21.4265 20.0184C21.4482 20.706 21.603 21.3801 21.8566 22.0201C22.4182 21.304 23.1595 20.6891 24.058 20.2177C25.3322 19.5475 26.8158 19.234 27.903 19.3761C29.4775 17.608 31.6255 16.5917 34.0038 16.5C34.0236 16.4993 34.0442 16.4985 34.0638 16.4978C35.4331 16.4545 38.1236 16.8434 39.3165 18.4513C39.8352 15.5469 38.7981 13.1609 35.7723 12.5429C36.3599 10.1525 34.8484 7.92551 33.4428 7.16331C32.8666 8.8287 31.9391 9.74308 30.9459 10.4651C31.3078 10.9561 32.1714 12.2696 32.1902 13.6725C32.1949 14.0696 31.8599 14.3975 31.4395 14.4103C31.4348 14.4108 31.4299 14.4108 31.4253 14.4112C30.9981 14.4177 30.6472 14.0971 30.642 13.6961C30.6295 12.7086 29.9584 11.6885 29.6851 11.3146C28.4319 12.1417 27.271 13.0307 26.5315 15.274C26.4306 15.5784 26.1368 15.7769 25.8153 15.787C25.7323 15.79 25.6475 15.7807 25.5632 15.7555C25.1552 15.6386 24.9267 15.2324 25.0534 14.8485C26.0115 11.9434 27.6589 10.8684 29.1131 9.92021C30.3477 9.11468 31.4194 8.41082 32.0125 6.5943L32.1319 5.98957C32.204 5.6258 32.2346 5.26077 32.2232 4.9044C32.1349 2.10755 29.6388 -0.0915484 26.6602 0.0029341C23.6831 0.0974166 21.3309 2.44997 21.4195 5.24682C21.4421 5.95554 21.6199 6.6408 21.949 7.28337L22.1316 7.64016L21.9103 7.97857C21.4218 8.7247 21.1787 9.58054 21.2062 10.4524Z" fill="#1A49BA"/>
<path d="M39.7774 28.4061C39.1431 29.1721 38.4618 29.7967 38.3449 29.9013C38.2008 30.0311 38.0177 30.0994 37.8334 30.1051C37.6221 30.1118 37.409 30.0379 37.2515 29.8838C36.9562 29.595 36.9664 29.1353 37.275 28.8567C37.6043 28.5585 38.3625 27.8094 38.8841 27.0971L38.8723 27.0829L39.1498 26.6504C39.7877 25.6564 40.1059 24.5217 40.0695 23.3689C40.0205 21.8168 39.3382 20.3702 38.1515 19.2834C38.0985 19.2333 38.0488 19.1825 37.9926 19.1356L37.9353 19.0847C36.9856 18.3246 35.5618 17.9067 34.0613 17.9517C32.8635 17.9974 30.59 18.4051 28.8217 20.6226L28.4727 21.0589L27.9297 20.868C27.4446 20.6989 26.1553 20.7767 24.8099 21.4841C23.8539 21.9859 22.7324 22.9565 22.2906 24.5987C21.5954 27.1816 23.5836 28.6857 24.2872 29.1846C24.6292 29.427 24.7898 29.8221 24.5808 30.1714C24.4428 30.4037 24.1917 30.5369 23.9291 30.5452C23.7953 30.5496 23.6582 30.5215 23.532 30.4557C22.9423 30.1507 22.1369 29.5206 21.5168 28.6056C21.3318 29.1742 21.2338 29.7665 21.2528 30.3674C21.2896 31.5217 21.7066 32.6183 22.4593 33.5375L22.6819 33.8106C23.328 34.5303 24.2396 35.2344 24.9482 35.7789C25.2851 36.0382 25.5867 36.2707 25.8169 36.468C27.9756 38.3141 27.5535 40.5673 27.0291 41.5013C26.8934 41.7412 26.6355 41.8818 26.3673 41.8904C26.2369 41.8947 26.1052 41.8674 25.9822 41.8067C25.607 41.6214 25.4622 41.1851 25.6586 40.8313C25.7558 40.6503 26.5372 39.0543 24.7727 37.5443C24.5586 37.3612 24.2781 37.1458 23.9655 36.9057C23.4267 36.4914 22.7812 35.9913 22.1849 35.4422C22.1547 35.6523 22.1363 35.863 22.1433 36.078C22.1608 36.6366 22.3052 37.1756 22.5715 37.68L22.7522 38.023L22.5519 38.3574C22.1276 39.0682 21.9173 39.8708 21.9427 40.6738C22.0207 43.1375 24.2183 45.0731 26.8414 44.99C28.6769 44.9319 30.2854 43.9126 31.0404 42.3297L31.1738 42.0488L31.4818 41.9424C32.3433 41.6457 33.0687 41.0807 33.557 40.3633C32.8923 40.2906 32.2666 40.0849 31.7086 39.7438C30.6596 39.1027 29.9876 38.0634 29.8659 36.8901C29.7547 35.814 30.0865 34.6102 30.4482 33.6728C29.7855 33.8903 29.1049 34.0023 28.4844 34.022C27.8226 34.0431 27.2305 33.9617 26.8042 33.7992C26.4087 33.6493 26.2187 33.2257 26.38 32.8529C26.5419 32.4811 26.9925 32.3019 27.3893 32.4513C28.2531 32.7789 30.9825 32.4845 31.9195 30.8286C32.8792 29.1154 33.1338 28.2235 32.7745 27.3628C32.4287 26.5336 31.758 26.2353 31.2565 26.1309C30.3366 25.9411 29.2702 26.2565 28.4808 26.9582C28.169 27.2353 27.6803 27.2235 27.3871 26.9328C27.0942 26.6416 27.1086 26.1814 27.4195 25.9049C28.3886 25.0449 29.6642 24.59 30.8864 24.6348C31.2514 23.2831 30.9255 21.9798 30.9221 21.9654C30.8208 21.5763 31.0762 21.1823 31.4913 21.0857C31.9018 20.9921 32.3245 21.2271 32.426 21.6165C32.4446 21.6906 32.8403 23.274 32.3907 24.9703C33.2188 25.3391 33.865 25.987 34.2156 26.8269C34.9605 28.6134 34.0681 30.2467 32.5507 32.7618C32.5456 32.7713 31.2341 35.0786 31.4065 36.7427C31.4816 37.4747 31.8918 38.1386 32.5553 38.5233C36.818 40.9955 41.8763 34.0731 39.7774 28.4061Z" fill="#1A49BA"/>
<path d="M52.1156 25V4.14H66.1436V7.92H56.4556V12.652H65.5836V16.432H56.4556V21.22H66.1436V25H52.1156ZM74.6519 25.336C73.1585 25.336 71.8239 24.9813 70.6479 24.272C69.4719 23.5627 68.5385 22.6013 67.8479 21.388C67.1759 20.1747 66.8399 18.8307 66.8399 17.356C66.8399 15.8627 67.1852 14.5187 67.8759 13.324C68.5665 12.1107 69.4999 11.1493 70.6759 10.44C71.8519 9.73067 73.1679 9.376 74.6239 9.376C75.7439 9.376 76.7332 9.59067 77.5919 10.02C78.4692 10.4307 79.1599 11.0187 79.6639 11.784L79.0199 12.624V3.804H83.2199V25H79.2999V22.2L79.6919 23.068C79.1692 23.8147 78.4599 24.384 77.5639 24.776C76.6679 25.1493 75.6972 25.336 74.6519 25.336ZM75.1559 21.556C75.9212 21.556 76.5932 21.3787 77.1719 21.024C77.7505 20.6693 78.1985 20.1747 78.5159 19.54C78.8519 18.9053 79.0199 18.1773 79.0199 17.356C79.0199 16.5347 78.8519 15.8067 78.5159 15.172C78.1985 14.5373 77.7505 14.0427 77.1719 13.688C76.5932 13.3333 75.9212 13.156 75.1559 13.156C74.3905 13.156 73.6999 13.3427 73.0839 13.716C72.4865 14.0707 72.0199 14.5653 71.6839 15.2C71.3479 15.816 71.1799 16.5347 71.1799 17.356C71.1799 18.1773 71.3479 18.9053 71.6839 19.54C72.0199 20.1747 72.4865 20.6693 73.0839 21.024C73.6999 21.3787 74.3905 21.556 75.1559 21.556ZM90.9437 25.336C89.7117 25.336 88.657 25.0747 87.7797 24.552C86.921 24.0107 86.2677 23.264 85.8197 22.312C85.3717 21.36 85.1477 20.2493 85.1477 18.98V9.712H89.3477V18.644C89.3477 19.2227 89.4597 19.736 89.6837 20.184C89.9264 20.6133 90.2624 20.9493 90.6917 21.192C91.121 21.4347 91.6064 21.556 92.1477 21.556C92.7077 21.556 93.193 21.4347 93.6037 21.192C94.033 20.9493 94.3597 20.6133 94.5837 20.184C94.8264 19.736 94.9477 19.2227 94.9477 18.644V9.712H99.1477V25H95.2277V21.976L95.4517 22.648C95.097 23.5627 94.5184 24.244 93.7157 24.692C92.9317 25.1213 92.0077 25.336 90.9437 25.336Z" fill="#222222"/>
<path d="M105.437 25V7.92H100.145V4.14H114.985V7.92H109.777V25H105.437ZM115.987 25V3.804H120.187V12.736L119.683 12.064C120.037 11.1493 120.607 10.4773 121.391 10.048C122.193 9.6 123.127 9.376 124.191 9.376C125.348 9.376 126.356 9.61867 127.215 10.104C128.092 10.5893 128.773 11.2707 129.259 12.148C129.744 13.0067 129.987 14.0147 129.987 15.172V25H125.787V16.068C125.787 15.4707 125.665 14.9573 125.423 14.528C125.199 14.0987 124.872 13.7627 124.443 13.52C124.032 13.2773 123.547 13.156 122.987 13.156C122.445 13.156 121.96 13.2773 121.531 13.52C121.101 13.7627 120.765 14.0987 120.523 14.528C120.299 14.9573 120.187 15.4707 120.187 16.068V25H115.987ZM131.908 25V9.712H136.108V25H131.908ZM131.908 8.34V4.14H136.108V8.34H131.908ZM138.342 25V9.712H142.262V12.736L142.038 12.064C142.392 11.1493 142.962 10.4773 143.746 10.048C144.548 9.6 145.482 9.376 146.546 9.376C147.703 9.376 148.711 9.61867 149.57 10.104C150.447 10.5893 151.128 11.2707 151.614 12.148C152.099 13.0067 152.342 14.0147 152.342 15.172V25H148.142V16.068C148.142 15.4707 148.02 14.9573 147.778 14.528C147.554 14.0987 147.227 13.7627 146.798 13.52C146.387 13.2773 145.902 13.156 145.342 13.156C144.8 13.156 144.315 13.2773 143.886 13.52C143.456 13.7627 143.12 14.0987 142.878 14.528C142.654 14.9573 142.542 15.4707 142.542 16.068V25H138.342ZM154.264 25V3.804H158.464V17.384L156.896 16.88L163.644 9.712H168.824L163.28 15.872L168.796 25H164.036L159.416 17.244L161.852 16.628L157.176 21.724L158.464 19.288V25H154.264Z" fill="#1A49BA"/>
<path d="M56.8526 42.0548C56.0426 42.0548 55.2876 41.9098 54.5876 41.6198C53.8976 41.3298 53.2876 40.9248 52.7576 40.4048C52.2376 39.8848 51.8276 39.2748 51.5276 38.5748C51.2376 37.8748 51.0926 37.1098 51.0926 36.2798C51.0926 35.4498 51.2376 34.6848 51.5276 33.9848C51.8276 33.2748 52.2376 32.6648 52.7576 32.1548C53.2776 31.6348 53.8876 31.2348 54.5876 30.9548C55.2876 30.6648 56.0426 30.5198 56.8526 30.5198C57.6726 30.5198 58.4276 30.6648 59.1176 30.9548C59.8176 31.2348 60.4276 31.6348 60.9476 32.1548C61.4776 32.6748 61.8876 33.2848 62.1776 33.9848C62.4676 34.6848 62.6126 35.4498 62.6126 36.2798C62.6126 37.1098 62.4626 37.8748 62.1626 38.5748C61.8726 39.2748 61.4676 39.8848 60.9476 40.4048C60.4276 40.9248 59.8176 41.3298 59.1176 41.6198C58.4176 41.9098 57.6626 42.0548 56.8526 42.0548ZM56.8526 40.4348C57.4326 40.4348 57.9626 40.3298 58.4426 40.1198C58.9326 39.9098 59.3576 39.6198 59.7176 39.2498C60.0776 38.8698 60.3576 38.4298 60.5576 37.9298C60.7576 37.4198 60.8576 36.8698 60.8576 36.2798C60.8576 35.6898 60.7576 35.1448 60.5576 34.6448C60.3576 34.1448 60.0776 33.7048 59.7176 33.3248C59.3576 32.9448 58.9326 32.6498 58.4426 32.4398C57.9626 32.2298 57.4326 32.1248 56.8526 32.1248C56.2726 32.1248 55.7376 32.2298 55.2476 32.4398C54.7676 32.6498 54.3476 32.9448 53.9876 33.3248C53.6276 33.7048 53.3476 34.1448 53.1476 34.6448C52.9576 35.1448 52.8626 35.6898 52.8626 36.2798C52.8626 36.8698 52.9576 37.4198 53.1476 37.9298C53.3476 38.4298 53.6276 38.8698 53.9876 39.2498C54.3476 39.6198 54.7726 39.9098 55.2626 40.1198C55.7526 40.3298 56.2826 40.4348 56.8526 40.4348ZM63.9765 41.8748V33.7598H65.5965V35.3498L65.4015 35.1398C65.6015 34.6298 65.9215 34.2448 66.3615 33.9848C66.8015 33.7148 67.3115 33.5798 67.8915 33.5798C68.4915 33.5798 69.0215 33.7098 69.4815 33.9698C69.9415 34.2298 70.3015 34.5898 70.5615 35.0498C70.8215 35.5098 70.9515 36.0398 70.9515 36.6398V41.8748H69.2715V37.0898C69.2715 36.6798 69.1965 36.3348 69.0465 36.0548C68.8965 35.7648 68.6815 35.5448 68.4015 35.3948C68.1315 35.2348 67.8215 35.1548 67.4715 35.1548C67.1215 35.1548 66.8065 35.2348 66.5265 35.3948C66.2565 35.5448 66.0465 35.7648 65.8965 36.0548C65.7465 36.3448 65.6715 36.6898 65.6715 37.0898V41.8748H63.9765ZM72.3156 41.8748V30.5198H74.0106V41.8748H72.3156ZM75.5423 41.8748V33.7598H77.2373V41.8748H75.5423ZM75.5423 32.6498V30.6998H77.2373V32.6498H75.5423ZM78.7691 41.8748V33.7598H80.3891V35.3498L80.1941 35.1398C80.3941 34.6298 80.7141 34.2448 81.1541 33.9848C81.5941 33.7148 82.1041 33.5798 82.6841 33.5798C83.2841 33.5798 83.8141 33.7098 84.2741 33.9698C84.7341 34.2298 85.0941 34.5898 85.3541 35.0498C85.6141 35.5098 85.7441 36.0398 85.7441 36.6398V41.8748H84.0641V37.0898C84.0641 36.6798 83.9891 36.3348 83.8391 36.0548C83.6891 35.7648 83.4741 35.5448 83.1941 35.3948C82.9241 35.2348 82.6141 35.1548 82.2641 35.1548C81.9141 35.1548 81.5991 35.2348 81.3191 35.3948C81.0491 35.5448 80.8391 35.7648 80.6891 36.0548C80.5391 36.3448 80.4641 36.6898 80.4641 37.0898V41.8748H78.7691ZM90.9182 42.0548C90.1082 42.0548 89.3882 41.8698 88.7582 41.4998C88.1382 41.1198 87.6532 40.6098 87.3032 39.9698C86.9532 39.3198 86.7782 38.5948 86.7782 37.7948C86.7782 36.9748 86.9532 36.2498 87.3032 35.6198C87.6632 34.9898 88.1432 34.4948 88.7432 34.1348C89.3432 33.7648 90.0232 33.5798 90.7832 33.5798C91.3932 33.5798 91.9382 33.6848 92.4182 33.8948C92.8982 34.1048 93.3032 34.3948 93.6332 34.7648C93.9632 35.1248 94.2132 35.5398 94.3832 36.0098C94.5632 36.4798 94.6532 36.9798 94.6532 37.5098C94.6532 37.6398 94.6482 37.7748 94.6382 37.9148C94.6282 38.0548 94.6082 38.1848 94.5782 38.3048H88.1132V36.9548H93.6182L92.8082 37.5698C92.9082 37.0798 92.8732 36.6448 92.7032 36.2648C92.5432 35.8748 92.2932 35.5698 91.9532 35.3498C91.6232 35.1198 91.2332 35.0048 90.7832 35.0048C90.3332 35.0048 89.9332 35.1198 89.5832 35.3498C89.2332 35.5698 88.9632 35.8898 88.7732 36.3098C88.5832 36.7198 88.5082 37.2198 88.5482 37.8098C88.4982 38.3598 88.5732 38.8398 88.7732 39.2498C88.9832 39.6598 89.2732 39.9798 89.6432 40.2098C90.0232 40.4398 90.4532 40.5548 90.9332 40.5548C91.4232 40.5548 91.8382 40.4448 92.1782 40.2248C92.5282 40.0048 92.8032 39.7198 93.0032 39.3698L94.3832 40.0448C94.2232 40.4248 93.9732 40.7698 93.6332 41.0798C93.3032 41.3798 92.9032 41.6198 92.4332 41.7998C91.9732 41.9698 91.4682 42.0548 90.9182 42.0548ZM103.399 42.0548C102.609 42.0548 101.874 41.9098 101.194 41.6198C100.524 41.3298 99.9395 40.9298 99.4395 40.4198C98.9495 39.8998 98.5645 39.2898 98.2845 38.5898C98.0045 37.8898 97.8645 37.1198 97.8645 36.2798C97.8645 35.4498 97.9995 34.6848 98.2695 33.9848C98.5495 33.2748 98.9395 32.6648 99.4395 32.1548C99.9395 31.6348 100.524 31.2348 101.194 30.9548C101.864 30.6648 102.599 30.5198 103.399 30.5198C104.189 30.5198 104.894 30.6548 105.514 30.9248C106.144 31.1948 106.674 31.5498 107.104 31.9898C107.534 32.4198 107.844 32.8898 108.034 33.3998L106.444 34.1498C106.204 33.5498 105.819 33.0648 105.289 32.6948C104.769 32.3148 104.139 32.1248 103.399 32.1248C102.659 32.1248 102.004 32.2998 101.434 32.6498C100.864 32.9998 100.419 33.4848 100.099 34.1048C99.7895 34.7248 99.6345 35.4498 99.6345 36.2798C99.6345 37.1098 99.7895 37.8398 100.099 38.4698C100.419 39.0898 100.864 39.5748 101.434 39.9248C102.004 40.2648 102.659 40.4348 103.399 40.4348C104.139 40.4348 104.769 40.2498 105.289 39.8798C105.819 39.5098 106.204 39.0248 106.444 38.4248L108.034 39.1748C107.844 39.6748 107.534 40.1448 107.104 40.5848C106.674 41.0248 106.144 41.3798 105.514 41.6498C104.894 41.9198 104.189 42.0548 103.399 42.0548ZM113.008 42.0548C112.228 42.0548 111.513 41.8698 110.863 41.4998C110.223 41.1298 109.713 40.6248 109.333 39.9848C108.953 39.3448 108.763 38.6198 108.763 37.8098C108.763 36.9898 108.953 36.2648 109.333 35.6348C109.713 34.9948 110.223 34.4948 110.863 34.1348C111.503 33.7648 112.218 33.5798 113.008 33.5798C113.808 33.5798 114.523 33.7648 115.153 34.1348C115.793 34.4948 116.298 34.9948 116.668 35.6348C117.048 36.2648 117.238 36.9898 117.238 37.8098C117.238 38.6298 117.048 39.3598 116.668 39.9998C116.288 40.6398 115.778 41.1448 115.138 41.5148C114.498 41.8748 113.788 42.0548 113.008 42.0548ZM113.008 40.4798C113.488 40.4798 113.913 40.3648 114.283 40.1348C114.653 39.9048 114.943 39.5898 115.153 39.1898C115.373 38.7798 115.483 38.3198 115.483 37.8098C115.483 37.2998 115.373 36.8448 115.153 36.4448C114.943 36.0448 114.653 35.7298 114.283 35.4998C113.913 35.2698 113.488 35.1548 113.008 35.1548C112.538 35.1548 112.113 35.2698 111.733 35.4998C111.363 35.7298 111.068 36.0448 110.848 36.4448C110.638 36.8448 110.533 37.2998 110.533 37.8098C110.533 38.3198 110.638 38.7798 110.848 39.1898C111.068 39.5898 111.363 39.9048 111.733 40.1348C112.113 40.3648 112.538 40.4798 113.008 40.4798ZM121.338 42.0548C120.728 42.0548 120.193 41.9198 119.733 41.6498C119.273 41.3698 118.913 40.9848 118.653 40.4948C118.403 39.9948 118.278 39.4198 118.278 38.7698V33.7598H119.973V38.6198C119.973 38.9898 120.048 39.3148 120.198 39.5948C120.348 39.8748 120.558 40.0948 120.828 40.2548C121.098 40.4048 121.408 40.4798 121.758 40.4798C122.118 40.4798 122.433 40.3998 122.703 40.2398C122.973 40.0798 123.183 39.8548 123.333 39.5648C123.493 39.2748 123.573 38.9348 123.573 38.5448V33.7598H125.253V41.8748H123.648V40.2848L123.828 40.4948C123.638 40.9948 123.323 41.3798 122.883 41.6498C122.443 41.9198 121.928 42.0548 121.338 42.0548ZM126.782 41.8748V33.7598H128.402V35.3948L128.252 35.1548C128.432 34.6248 128.722 34.2448 129.122 34.0148C129.522 33.7748 130.002 33.6548 130.562 33.6548H131.057V35.1998H130.352C129.792 35.1998 129.337 35.3748 128.987 35.7248C128.647 36.0648 128.477 36.5548 128.477 37.1948V41.8748H126.782ZM134.767 42.0548C133.937 42.0548 133.207 41.8498 132.577 41.4398C131.957 41.0298 131.522 40.4798 131.272 39.7898L132.577 39.1748C132.797 39.6348 133.097 39.9998 133.477 40.2698C133.867 40.5398 134.297 40.6748 134.767 40.6748C135.167 40.6748 135.492 40.5848 135.742 40.4048C135.992 40.2248 136.117 39.9798 136.117 39.6698C136.117 39.4698 136.062 39.3098 135.952 39.1898C135.842 39.0598 135.702 38.9548 135.532 38.8748C135.372 38.7948 135.207 38.7348 135.037 38.6948L133.762 38.3348C133.062 38.1348 132.537 37.8348 132.187 37.4348C131.847 37.0248 131.677 36.5498 131.677 36.0098C131.677 35.5198 131.802 35.0948 132.052 34.7348C132.302 34.3648 132.647 34.0798 133.087 33.8798C133.527 33.6798 134.022 33.5798 134.572 33.5798C135.312 33.5798 135.972 33.7648 136.552 34.1348C137.132 34.4948 137.542 34.9998 137.782 35.6498L136.477 36.2648C136.317 35.8748 136.062 35.5648 135.712 35.3348C135.372 35.1048 134.987 34.9898 134.557 34.9898C134.187 34.9898 133.892 35.0798 133.672 35.2598C133.452 35.4298 133.342 35.6548 133.342 35.9348C133.342 36.1248 133.392 36.2848 133.492 36.4148C133.592 36.5348 133.722 36.6348 133.882 36.7148C134.042 36.7848 134.207 36.8448 134.377 36.8948L135.697 37.2848C136.367 37.4748 136.882 37.7748 137.242 38.1848C137.602 38.5848 137.782 39.0648 137.782 39.6248C137.782 40.1048 137.652 40.5298 137.392 40.8998C137.142 41.2598 136.792 41.5448 136.342 41.7548C135.892 41.9548 135.367 42.0548 134.767 42.0548ZM142.802 42.0548C141.992 42.0548 141.272 41.8698 140.642 41.4998C140.022 41.1198 139.537 40.6098 139.187 39.9698C138.837 39.3198 138.662 38.5948 138.662 37.7948C138.662 36.9748 138.837 36.2498 139.187 35.6198C139.547 34.9898 140.027 34.4948 140.627 34.1348C141.227 33.7648 141.907 33.5798 142.667 33.5798C143.277 33.5798 143.822 33.6848 144.302 33.8948C144.782 34.1048 145.187 34.3948 145.517 34.7648C145.847 35.1248 146.097 35.5398 146.267 36.0098C146.447 36.4798 146.537 36.9798 146.537 37.5098C146.537 37.6398 146.532 37.7748 146.522 37.9148C146.512 38.0548 146.492 38.1848 146.462 38.3048H139.997V36.9548H145.502L144.692 37.5698C144.792 37.0798 144.757 36.6448 144.587 36.2648C144.427 35.8748 144.177 35.5698 143.837 35.3498C143.507 35.1198 143.117 35.0048 142.667 35.0048C142.217 35.0048 141.817 35.1198 141.467 35.3498C141.117 35.5698 140.847 35.8898 140.657 36.3098C140.467 36.7198 140.392 37.2198 140.432 37.8098C140.382 38.3598 140.457 38.8398 140.657 39.2498C140.867 39.6598 141.157 39.9798 141.527 40.2098C141.907 40.4398 142.337 40.5548 142.817 40.5548C143.307 40.5548 143.722 40.4448 144.062 40.2248C144.412 40.0048 144.687 39.7198 144.887 39.3698L146.267 40.0448C146.107 40.4248 145.857 40.7698 145.517 41.0798C145.187 41.3798 144.787 41.6198 144.317 41.7998C143.857 41.9698 143.352 42.0548 142.802 42.0548ZM150.742 42.0548C149.912 42.0548 149.182 41.8498 148.552 41.4398C147.932 41.0298 147.497 40.4798 147.247 39.7898L148.552 39.1748C148.772 39.6348 149.072 39.9998 149.452 40.2698C149.842 40.5398 150.272 40.6748 150.742 40.6748C151.142 40.6748 151.467 40.5848 151.717 40.4048C151.967 40.2248 152.092 39.9798 152.092 39.6698C152.092 39.4698 152.037 39.3098 151.927 39.1898C151.817 39.0598 151.677 38.9548 151.507 38.8748C151.347 38.7948 151.182 38.7348 151.012 38.6948L149.737 38.3348C149.037 38.1348 148.512 37.8348 148.162 37.4348C147.822 37.0248 147.652 36.5498 147.652 36.0098C147.652 35.5198 147.777 35.0948 148.027 34.7348C148.277 34.3648 148.622 34.0798 149.062 33.8798C149.502 33.6798 149.997 33.5798 150.547 33.5798C151.287 33.5798 151.947 33.7648 152.527 34.1348C153.107 34.4948 153.517 34.9998 153.757 35.6498L152.452 36.2648C152.292 35.8748 152.037 35.5648 151.687 35.3348C151.347 35.1048 150.962 34.9898 150.532 34.9898C150.162 34.9898 149.867 35.0798 149.647 35.2598C149.427 35.4298 149.317 35.6548 149.317 35.9348C149.317 36.1248 149.367 36.2848 149.467 36.4148C149.567 36.5348 149.697 36.6348 149.857 36.7148C150.017 36.7848 150.182 36.8448 150.352 36.8948L151.672 37.2848C152.342 37.4748 152.857 37.7748 153.217 38.1848C153.577 38.5848 153.757 39.0648 153.757 39.6248C153.757 40.1048 153.627 40.5298 153.367 40.8998C153.117 41.2598 152.767 41.5448 152.317 41.7548C151.867 41.9548 151.342 42.0548 150.742 42.0548Z" fill="#6A6480"/>
</svg>
