<svg width="24" height="28" viewBox="0 0 24 28" fill="none" xmlns="http://www.w3.org/2000/svg">
<path d="M17.3874 0C17.4526 0 17.5178 0 17.5866 0C17.7465 1.97462 16.9928 3.45005 16.0768 4.51851C15.178 5.57959 13.9472 6.6087 11.9566 6.45255C11.8238 4.50621 12.5788 3.14021 13.4935 2.07421C14.3419 1.08075 15.8973 0.196724 17.3874 0Z" fill="black"/>
<path d="M23.4133 20.5528C23.4133 20.5724 23.4133 20.5897 23.4133 20.6081C22.8539 22.3024 22.0559 23.7545 21.0821 25.102C20.1932 26.3254 19.1038 27.9717 17.1587 27.9717C15.478 27.9717 14.3615 26.891 12.639 26.8615C10.8168 26.832 9.81476 27.7652 8.14875 28C7.95818 28 7.7676 28 7.58071 28C6.35733 27.823 5.37002 26.8541 4.65075 25.9811C2.52982 23.4016 0.89086 20.0696 0.585938 15.8056C0.585938 15.3875 0.585938 14.9707 0.585938 14.5527C0.715038 11.501 2.19785 9.01982 4.16878 7.81734C5.20896 7.17799 6.63889 6.63331 8.23113 6.87675C8.91352 6.98249 9.61066 7.2161 10.2217 7.44725C10.8008 7.6698 11.525 8.06448 12.2111 8.04357C12.6759 8.03005 13.1382 7.78783 13.6066 7.61693C14.9788 7.12143 16.3239 6.55339 18.0968 6.82019C20.2276 7.14233 21.7399 8.08907 22.6744 9.54974C20.8719 10.6969 19.4469 12.4256 19.6903 15.3777C19.9067 18.0593 21.4658 19.6282 23.4133 20.5528Z" fill="black"/>
</svg>
