<svg width="28" height="28" viewBox="0 0 28 28" fill="none" xmlns="http://www.w3.org/2000/svg">
<path d="M11.3229 15.4465C11.235 15.4465 9.39064 15.447 8.54 15.4462C8.10208 15.4459 7.94584 15.2885 7.94584 14.8478C7.94528 13.7158 7.945 12.5837 7.94584 11.4517C7.94612 11.0166 8.11132 10.8505 8.54364 10.8503C9.39428 10.8497 11.2286 10.85 11.3229 10.85C11.3229 10.7724 11.3226 9.13806 11.3229 8.38542C11.3235 7.2727 11.522 6.20758 12.0873 5.23234C12.6661 4.23414 13.5083 3.55038 14.5877 3.15502C15.279 2.90162 15.9967 2.80054 16.7303 2.79998C17.6481 2.79942 18.566 2.80026 19.4841 2.80194C19.8786 2.8025 20.0536 2.97694 20.0544 3.37426C20.0561 4.4391 20.0561 5.50394 20.0544 6.5685C20.0539 6.97002 19.8862 7.1313 19.4827 7.13578C18.7303 7.1439 17.9774 7.13886 17.2259 7.1691C16.4668 7.1691 16.0675 7.53982 16.0675 8.3255C16.0493 9.15654 16.06 9.98842 16.06 10.8497C16.1311 10.8497 18.2913 10.8494 19.301 10.8497C19.7596 10.8497 19.9164 11.0073 19.9164 11.4685C19.9164 12.5944 19.9161 13.7205 19.9153 14.8464C19.915 15.3009 19.7677 15.4459 19.3063 15.4462C18.2966 15.4467 16.1448 15.4465 16.0507 15.4465V24.5591C16.0507 25.0449 15.8978 25.1997 15.4185 25.1997C14.2498 25.1997 13.0808 25.2 11.912 25.1997C11.4884 25.1997 11.3232 25.0351 11.3232 24.6114C11.3229 21.6437 11.3229 15.5506 11.3229 15.4465Z" fill="#3D6AD6"/>
</svg>
